<?xml version="1.0" encoding="utf-8"?>
<!-- Generator: Adobe Illustrator 23.0.1, SVG Export Plug-In . SVG Version: 6.00 Build 0)  -->
<svg version="1.1" id="Layer_1" xmlns="http://www.w3.org/2000/svg" xmlns:xlink="http://www.w3.org/1999/xlink" x="0px" y="0px"
	 viewBox="0 0 401.2 421.2" style="enable-background:new 0 0 401.2 421.2;" xml:space="preserve">
<style type="text/css">
	.st0{fill:none;stroke:#EE255C;stroke-width:4;stroke-linejoin:bevel;stroke-miterlimit:10;}
	.st1{display:none;}
	.st2{display:inline;fill:none;stroke:#EE255C;stroke-width:4;stroke-linejoin:bevel;stroke-miterlimit:10;}
	.st3{display:inline;}
	.st4{display:none;fill:none;stroke:#EE255C;stroke-width:4;stroke-linejoin:bevel;}
	.st5{display:none;fill:none;stroke:#EE255C;stroke-width:4;stroke-linejoin:bevel;stroke-miterlimit:10;}
	.st6{display:inline;fill:none;stroke:#EE255C;stroke-width:4;stroke-linejoin:bevel;}
</style>
<g id="_x35_">
	<polyline class="st0" points="64.6,285.9 64.6,265.8 99.5,265.8 99.5,270.8 	"/>
	<line class="st0" x1="64.6" y1="330.8" x2="64.6" y2="314.9"/>
	<polyline class="st0" points="46,265.4 51,265.4 51,285.9 81.6,285.9 81.6,314.9 51,314.9 51,330.8 	"/>
	<polyline class="st0" points="46,330.5 99.5,330.5 99.5,325.8 	"/>
</g>
<g id="_x34_" class="st1">
	<polyline class="st0" points="64.6,289.7 64.6,265.8 99.5,265.8 99.5,270.8 	"/>
	<line class="st2" x1="64.6" y1="311.7" x2="64.6" y2="330.8"/>
	<polyline class="st0" points="46,265.8 51,265.8 51,289.7 81.6,289.7 81.6,311.7 51,311.7 51,330.8 	"/>
	<polyline class="st0" points="46,330.8 99.5,330.8 99.5,325.8 	"/>
</g>
<g id="_x33_" class="st1">
	<g id="_x33__1_" class="st3">
		<polyline class="st0" points="64.6,288.9 64.6,266 99.5,266 99.5,271 		"/>
		<line class="st4" x1="64.6" y1="331" x2="64.6" y2="313"/>
		<polyline class="st5" points="46,266 51,266 51,288.9 81.6,288.9 81.6,313 51,313 51,331 		"/>
		<polyline class="st5" points="46,331.1 99.5,331.1 99.5,326.1 		"/>
	</g>
</g>
<g id="_x32_" class="st1">
	<polyline class="st6" points="64.6,286.4 64.6,266 99.6,266 99.6,271 	"/>
	<line class="st6" x1="64.6" y1="331" x2="64.6" y2="315.4"/>
	<polyline class="st6" points="46,266 51,266 51,286.4 81.6,286.4 81.6,315.4 51,315.4 51,331 	"/>
	<polyline class="st6" points="46,331 99.6,331 99.6,326 	"/>
</g>
<g id="_x31_" class="st1">
	<line class="st2" x1="64.6" y1="331" x2="64.6" y2="308"/>
	<polyline class="st2" points="64.6,294 64.6,266 99.6,266 99.6,271 	"/>
	<polyline class="st2" points="46,266 51,266 51,293.9 81.6,293.9 81.6,307.9 51,307.9 51,331 	"/>
	<polyline class="st2" points="46,331 99.6,331 99.6,326 	"/>
</g>
<g id="_x30_" class="st1">
	<line class="st2" x1="64.6" y1="331" x2="64.6" y2="301"/>
	<polyline class="st2" points="64.6,301 64.6,266 99.4,266 99.4,271 	"/>
	<polyline class="st2" points="46,266 51,266 51,301 81.6,301 81.6,300.9 51,300.9 51,331 	"/>
	<polyline class="st2" points="46,331 99.4,331 99.4,326 	"/>
</g>
</svg>
