<?xml version="1.0" encoding="utf-8"?>
<!-- Generator: Adobe Illustrator 21.1.0, SVG Export Plug-In . SVG Version: 6.00 Build 0)  -->
<svg version="1.1" id="Layer_1" xmlns="http://www.w3.org/2000/svg" xmlns:xlink="http://www.w3.org/1999/xlink" x="0px" y="0px"
	 viewBox="0 0 401.2 421.2" style="enable-background:new 0 0 401.2 421.2;" xml:space="preserve">
<style type="text/css">
	.st0{display:none;}
	.st1{fill:none;stroke:#EE255C;stroke-width:4;stroke-linejoin:bevel;stroke-miterlimit:10;}
	.st2{fill:none;stroke:#3E26ED;stroke-width:4;stroke-linejoin:bevel;stroke-miterlimit:10;}
	.st3{fill:none;stroke:#EE255C;stroke-width:4;stroke-linecap:square;stroke-miterlimit:10;}
	.st4{display:inline;fill:none;stroke:#EE255C;stroke-width:4;stroke-linecap:square;stroke-miterlimit:10;}
	.st5{display:inline;fill:none;stroke:#EE255C;stroke-width:4;stroke-linejoin:bevel;stroke-miterlimit:10;}
	.st6{display:inline;fill:none;stroke:#EE255C;stroke-width:4;stroke-linejoin:bevel;}
	.st7{display:none;fill:none;stroke:#EE255C;stroke-width:4;stroke-linejoin:bevel;stroke-miterlimit:10;}
</style>
<g id="_x34_" class="st0">
	<path class="st1" d="M251,44.5V17.9v0l-33,46.1c3.2,1.8,6.9,2.8,10.8,2.8C241,66.8,251,56.8,251,44.5"/>
	<line class="st1" x1="251" y1="44.5" x2="251" y2="19.1"/>
	<path class="st1" d="M251,21l0-2.7v-0.3l-0.3,0.3L218,64.1c3.2,1.8,6.9,2.8,10.8,2.8c12.3,0,22.3-10,22.3-22.3"/>
	<path class="st1" d="M206.4,44.5c0,3.2,0.7,6.2,1.8,8.9l37.6-51.6l10.2,0"/>
	<polyline class="st1" points="206.4,44.5 206.4,1.8 201.4,1.8 	"/>
</g>
<g id="_x33_" class="st0">
	<path class="st2" d="M216.4,63.3L251,20.8v23.8c0,12.3-10,22.3-22.3,22.3C224.2,66.9,219.9,65.6,216.4,63.3z"/>
	<line class="st3" x1="251" y1="22.8" x2="251" y2="44.6"/>
	<path class="st4" d="M251,44.6c0.4,14.4-16.2,29.4-34.6,18.6l33.7-41.3l0.2,0.1l0.7,0.3v1.4"/>
	<path class="st1" d="M256,1.9h-7.1l-41,50.5c-0.9-2.4-1.4-5-1.4-7.8"/>
	<polyline class="st1" points="206.4,44.6 206.4,1.9 201.4,1.9 	"/>
</g>
<g id="_x32_" class="st0">
	<path class="st5" d="M251.3,28.4h-2.6L213.8,61l0,0c11.2,11.4,35.2,6,37.6-13.6"/>
	<polyline class="st5" points="251.3,26.4 251.4,40.8 251.4,47.7 	"/>
	<path class="st5" d="M206.8,44.7c0.1,1.3,0.1,2.6,0.3,3.9c2-1.8,3.9-3.7,5.9-5.5c4.5-4.2,9-8.3,13.4-12.5
		c4.9-4.5,9.7-9.1,14.6-13.6c3.1-2.9,6.3-5.8,9.4-8.8c0.2-0.2,0.6-0.5,0.8-0.7c0.2-0.4,0.1-1.1,0.1-1.5c0-0.8,0-1.7,0-2.5
		c0-0.2-0.2-1.3,0-1.4c0.1-0.1,1,0,1.2,0c0.8,0,1.6,0,2.5,0c0.5,0,0.9,0,1.4,0"/>
	<path class="st6" d="M206.8,44.7c0-5.8,0-11.5,0-17.3c0-7.8,0-15.7,0-23.5c0-0.3,0.2-1.7,0-1.9s-2,0-2.3,0c-0.9,0-1.8,0-2.7,0"/>
</g>
<g id="_x31_" class="st0">
	<polyline class="st5" points="249.4,2 244.4,2 244.4,44.7 	"/>
	<path class="st5" d="M249.3,2h-5l-26.9,64.5l0,0c10.1,2.2,25.7-3.6,26.9-21.8"/>
	<path class="st5" d="M199.7,44.7c0.1,7.1,2.5,10.5,4.9,13.9l21.7-52.1l2-4.5h-5"/>
	<polyline class="st5" points="199.8,44.7 199.8,2 194.8,2 	"/>
</g>
<g id="_x30_">
	<polyline class="st1" points="249.3,2 244.3,2 244.3,44.7 	"/>
	<path class="st7" d="M249.3,2H230v63.5l0,0c8.4-3.2,14.3-11.3,14.3-20.8"/>
	<path class="st7" d="M199.7,44.7c0,9.5,6,16.7,14.4,19.9L214,6.5V2h5"/>
	<polyline class="st7" points="199.7,44.7 199.7,2 194.7,2 	"/>
</g>
</svg>
