<?xml version="1.0" encoding="utf-8"?>
<!-- Generator: Adobe Illustrator 23.0.0, SVG Export Plug-In . SVG Version: 6.00 Build 0)  -->
<svg version="1.1" xmlns="http://www.w3.org/2000/svg" xmlns:xlink="http://www.w3.org/1999/xlink" x="0px" y="0px"
	 viewBox="0 0 401.2 421.2" style="enable-background:new 0 0 401.2 421.2;" xml:space="preserve">
<style type="text/css">
	.st0{fill:none;stroke:#EE255C;stroke-width:4;stroke-linejoin:bevel;stroke-miterlimit:10;}
	.st1{fill:none;stroke:#EE255C;stroke-width:4;stroke-linejoin:bevel;}
	.st2{fill:none;stroke:#EE255C;stroke-width:4;stroke-linecap:square;stroke-linejoin:bevel;stroke-miterlimit:10;}
</style>
<g id="Layer_4">
	<polyline class="st0" points="84.6,409.7 94.6,419 95.7,418 164.1,354 169.3,354 	"/>
	<polyline class="st0" points="0,354 5,354 73.8,419 76.2,416.8 144.3,354 25.7,354 55.6,381.9 	"/>
	<line class="st1" x1="60.2" y1="381.9" x2="48.2" y2="381.9"/>
</g>
<g id="Layer_2">
	<polyline class="st0" points="116.4,399.9 124.4,419 129.4,419 155.6,354 160.6,354 	"/>
	<polyline class="st0" points="71.6,354 76.6,354 103.8,419 108.8,419 134.9,354 92.6,354 104.2,381.9 	"/>
	<line class="st0" x1="110.2" y1="381.9" x2="98.2" y2="381.9"/>
</g>
<g id="Layer_3">
	<line class="st2" x1="100.2" y1="381.8" x2="90.2" y2="381.8"/>
	<polyline class="st0" points="116.1,399.9 124.1,419 149.2,419 149.2,354 154.2,354 	"/>
	<polyline class="st0" points="75.4,354 80.4,354 80.4,419 108.4,419 134.6,354 95.2,354 95.2,381.9 	"/>
</g>
</svg>
