<?xml version="1.0" encoding="utf-8"?>
<!-- Generator: Adobe Illustrator 23.0.0, SVG Export Plug-In . SVG Version: 6.00 Build 0)  -->
<svg version="1.1" xmlns="http://www.w3.org/2000/svg" xmlns:xlink="http://www.w3.org/1999/xlink" x="0px" y="0px"
	 viewBox="0 0 401.2 421.2" style="enable-background:new 0 0 401.2 421.2;" xml:space="preserve">
<style type="text/css">
	.st0{fill:none;stroke:#EE255C;stroke-width:4;stroke-linejoin:bevel;}
	.st1{fill:none;stroke:#EE255C;stroke-width:4;stroke-linejoin:bevel;stroke-miterlimit:10;}
</style>
<g id="_x32_">
	<polyline class="st0" points="64.6,22.4 64.6,2 99.6,2 99.6,7 	"/>
	<line class="st0" x1="64.6" y1="67" x2="64.6" y2="51.4"/>
	<polyline class="st0" points="46,2 51,2 51,22.4 81.6,22.4 81.6,51.4 51,51.4 51,67 	"/>
	<polyline class="st0" points="46,67 99.6,67 99.6,62 	"/>
</g>
<g id="_x31_">
	<line class="st1" x1="64.7" y1="67" x2="64.7" y2="44"/>
	<polyline class="st1" points="64.7,30 64.7,2 99.6,2 99.6,7 	"/>
	<polyline class="st1" points="46,2 51,2 51,29.9 81.6,29.9 81.6,43.9 51,43.9 51,67 	"/>
	<polyline class="st1" points="46,67 99.6,67 99.6,62 	"/>
</g>
<g id="_x30_">
	<line class="st1" x1="64.6" y1="67" x2="64.6" y2="37"/>
	<polyline class="st1" points="64.6,37 64.6,2 99.5,2 99.5,7 	"/>
	<polyline class="st1" points="46,2 51,2 51,37 81.6,37 81.6,36.9 51,36.9 51,67 	"/>
	<polyline class="st1" points="46,67 99.5,67 99.5,62 	"/>
</g>
</svg>
