<?xml version="1.0" encoding="utf-8"?>
<!-- Generator: Adobe Illustrator 23.0.0, SVG Export Plug-In . SVG Version: 6.00 Build 0)  -->
<svg version="1.1" xmlns="http://www.w3.org/2000/svg" xmlns:xlink="http://www.w3.org/1999/xlink" x="0px" y="0px"
	 viewBox="0 0 401.2 421.2" style="enable-background:new 0 0 401.2 421.2;" xml:space="preserve">
<style type="text/css">
	.st0{display:none;fill:none;stroke:#EE255C;stroke-width:4;stroke-linejoin:bevel;}
	.st1{display:none;fill:none;stroke:#EE255C;stroke-width:4;stroke-linejoin:bevel;stroke-miterlimit:10;}
	.st2{fill:none;stroke:#EE255C;stroke-width:4;stroke-linejoin:bevel;stroke-miterlimit:10;}
	.st3{display:none;}
	.st4{display:inline;fill:none;stroke:#EE255C;stroke-width:4;stroke-linejoin:bevel;stroke-miterlimit:10;}
</style>
<g id="Layer_4_2_">
	<polyline class="st0" points="313.6,354 318.6,354 318.6,419 	"/>
	<line class="st0" x1="401.2" y1="419" x2="391.2" y2="419"/>
	<polyline class="st1" points="393.4,354 388.3,354 358.5,382 318.6,419 313.6,419 	"/>
	<polyline class="st0" points="318.6,400.5 368.4,354 315.3,354 	"/>
	<polyline class="st2" points="315.2,354 368.4,354 318.7,400.5 318.6,419 	"/>
	<line class="st0" x1="358.3" y1="382" x2="397.9" y2="419"/>
</g>
<g id="Layer_3" class="st3">
	<polyline class="st4" points="315.2,354 345.9,354 318.7,419 315.2,419 	"/>
	<polyline class="st2" points="366.8,354 361.8,354 334.6,419 313.6,419 	"/>
	<polyline class="st2" points="366.8,354 361.8,354 350.1,382 334.7,419 313.6,419 	"/>
	<line class="st2" x1="350.1" y1="382" x2="365.6" y2="419"/>
	<polyline class="st2" points="313.6,354 318.6,354 318.6,419 	"/>
	<line class="st2" x1="369.8" y1="419" x2="359.8" y2="419"/>
</g>
<g id="Layer_5_2_" class="st3">
	<polyline class="st4" points="315.2,354 332.6,354 332.6,419 315.2,419 	"/>
	<line class="st2" x1="350.1" y1="382" x2="365.6" y2="419"/>
	<polyline class="st2" points="313.6,354 318.6,354 318.6,419 	"/>
	<line class="st2" x1="369.8" y1="419" x2="359.8" y2="419"/>
	<polyline class="st2" points="366.8,354 361.8,354 350.1,382 350.1,419 313.6,419 	"/>
</g>
</svg>
