<?xml version="1.0" encoding="utf-8"?>
<!-- Generator: Adobe Illustrator 23.0.1, SVG Export Plug-In . SVG Version: 6.00 Build 0)  -->
<svg version="1.1" id="Layer_1" xmlns="http://www.w3.org/2000/svg" xmlns:xlink="http://www.w3.org/1999/xlink" x="0px" y="0px"
	 viewBox="0 0 401.2 421.2" style="enable-background:new 0 0 401.2 421.2;" xml:space="preserve">
<style type="text/css">
	.st0{fill:none;stroke:#EE255C;stroke-width:4;stroke-linejoin:bevel;stroke-miterlimit:10;}
	.st1{display:none;}
	.st2{display:inline;fill:none;stroke:#EE255C;stroke-width:4;stroke-linejoin:bevel;stroke-miterlimit:10;}
	.st3{display:inline;fill:none;stroke:#EE255C;stroke-width:4;stroke-linejoin:bevel;}
</style>
<g id="_x37_">
	<polyline class="st0" points="64.8,293.8 64.8,265.9 99.7,265.9 99.7,270.9 	"/>
	<line class="st0" x1="64.8" y1="330.9" x2="64.8" y2="307.9"/>
	<polyline class="st0" points="46.2,265.9 51.2,265.9 51.2,293.8 81.8,293.9 81.8,307.8 51.2,307.8 51.2,330.9 	"/>
	<polyline class="st0" points="99.7,325.9 99.7,330.9 46.2,330.9 	"/>
</g>
<g id="_x36_" class="st1">
	<polyline class="st2" points="64.8,291.6 64.8,265.9 99.7,265.9 99.7,270.9 	"/>
	<line class="st2" x1="64.8" y1="330.9" x2="65.2" y2="310.3"/>
	<polyline class="st2" points="46.2,265.9 51.2,265.9 51.2,291.6 81.8,291.6 82.2,310.3 51.6,310.3 51.2,330.9 	"/>
	<polyline class="st2" points="99.7,325.9 99.7,330.9 46.2,330.9 	"/>
</g>
<g id="_x35_" class="st1">
	<polyline class="st2" points="99.7,270.9 99.7,265.9 64.8,265.9 64.8,286.4 	"/>
	<line class="st2" x1="64.8" y1="330.9" x2="64.8" y2="315.4"/>
	<polyline class="st2" points="51.2,330.9 51.2,315.4 81.8,315.4 81.8,286.4 51.2,286.4 51.2,265.9 46.2,265.9 	"/>
	<polyline class="st2" points="99.7,325.9 99.7,330.9 46.2,330.9 	"/>
</g>
<g id="_x34__1_" class="st1">
	<polyline class="st2" points="64.8,289.8 64.8,265.9 99.7,265.9 99.7,270.9 	"/>
	<line class="st2" x1="64.8" y1="311.8" x2="64.8" y2="330.9"/>
	<polyline class="st2" points="46.2,265.9 51.2,265.9 51.2,289.8 81.8,289.8 81.8,311.8 51.2,311.8 51.2,330.9 	"/>
	<polyline class="st2" points="46.2,330.9 99.7,330.9 99.7,325.9 	"/>
</g>
<g id="_x33_" class="st1">
	<polyline class="st2" points="65.1,289 65.1,266.1 100,266.1 100,271.1 	"/>
	<line class="st3" x1="65.1" y1="331.1" x2="65.1" y2="313.1"/>
	<polyline class="st2" points="46.5,266.1 51.5,266.1 51.5,289 82.1,289 82.1,313.1 51.5,313.1 51.5,331.1 	"/>
	<polyline class="st2" points="46.5,331.2 100,331.2 100,326.2 	"/>
</g>
<g id="_x32_" class="st1">
	<polyline class="st3" points="65.1,286.5 65.1,266.1 100.1,266.1 100.1,271.1 	"/>
	<line class="st3" x1="65.1" y1="331.1" x2="65.1" y2="315.5"/>
	<polyline class="st3" points="46.5,266.1 51.5,266.1 51.5,286.5 82.1,286.5 82.1,315.5 51.5,315.5 51.5,331.1 	"/>
	<polyline class="st3" points="46.5,331.1 100.1,331.1 100.1,326.1 	"/>
</g>
<g id="_x31_" class="st1">
	<line class="st2" x1="65.2" y1="331.1" x2="65.2" y2="308.1"/>
	<polyline class="st2" points="65.2,294.1 65.2,266.1 100.1,266.1 100.1,271.1 	"/>
	<polyline class="st2" points="46.5,266.1 51.5,266.1 51.5,294 82.1,294 82.1,308 51.5,308 51.5,331.1 	"/>
	<polyline class="st2" points="46.5,331.1 100.1,331.1 100.1,326.1 	"/>
</g>
<g id="_x30_" class="st1">
	<line class="st2" x1="65.1" y1="331.1" x2="65.1" y2="301.1"/>
	<polyline class="st2" points="65.1,301.1 65.1,266.1 100,266.1 100,271.1 	"/>
	<polyline class="st2" points="46.5,266.1 51.5,266.1 51.5,301.1 82.1,301.1 82.1,301 51.5,301 51.5,331.1 	"/>
	<polyline class="st2" points="46.5,331.1 100,331.1 100,326.1 	"/>
</g>
</svg>
