<?xml version="1.0" encoding="utf-8"?>
<!-- Generator: Adobe Illustrator 23.0.0, SVG Export Plug-In . SVG Version: 6.00 Build 0)  -->
<svg version="1.1" xmlns="http://www.w3.org/2000/svg" xmlns:xlink="http://www.w3.org/1999/xlink" x="0px" y="0px"
	 viewBox="0 0 401.2 421.2" style="enable-background:new 0 0 401.2 421.2;" xml:space="preserve">
<style type="text/css">
	.st0{display:none;fill:none;stroke:#EE255C;stroke-width:4;stroke-linejoin:bevel;}
	.st1{fill:none;stroke:#EE255C;stroke-width:4;stroke-linejoin:bevel;}
	.st2{display:none;fill:none;stroke:#EE255C;stroke-width:4;stroke-linejoin:bevel;stroke-miterlimit:10;}
	.st3{display:none;}
	.st4{fill:none;stroke:#EE255C;stroke-width:4;stroke-linejoin:bevel;stroke-miterlimit:10;}
</style>
<g id="Layer_6">
	<polyline class="st0" points="64.6,286.4 64.6,266 99.6,266 99.6,271 	"/>
	<line class="st1" x1="64.6" y1="331" x2="64.6" y2="315.4"/>
	<polyline class="st0" points="46,266 51,266 51,286.4 81.6,286.4 81.6,315.4 51,315.4 51,331 	"/>
	<polyline class="st0" points="46,331 99.6,331 99.6,326 	"/>
</g>
<g id="Layer_5">
	<line class="st2" x1="64.6" y1="331" x2="64.6" y2="308"/>
	<polyline class="st2" points="64.6,294 64.6,266 99.6,266 99.6,271 	"/>
	<polyline class="st2" points="46,266 51,266 51,293.9 81.6,293.9 81.6,307.9 51,307.9 51,331 	"/>
	<polyline class="st2" points="46,331 99.6,331 99.6,326 	"/>
</g>
<g id="Layer_4" class="st3">
	<line class="st4" x1="64.6" y1="331" x2="64.6" y2="301"/>
	<polyline class="st4" points="64.6,301 64.6,266 99.4,266 99.4,271 	"/>
	<polyline class="st4" points="46,266 51,266 51,301 81.6,301 81.6,300.9 51,300.9 51,331 	"/>
	<polyline class="st4" points="46,331 99.4,331 99.4,326 	"/>
</g>
</svg>
