<?xml version="1.0" encoding="utf-8"?>
<!-- Generator: Adobe Illustrator 23.0.0, SVG Export Plug-In . SVG Version: 6.00 Build 0)  -->
<svg version="1.1" xmlns="http://www.w3.org/2000/svg" xmlns:xlink="http://www.w3.org/1999/xlink" x="0px" y="0px"
	 viewBox="0 0 401.2 421.2" style="enable-background:new 0 0 401.2 421.2;" xml:space="preserve">
<style type="text/css">
	.st0{display:none;fill:none;stroke:#EE255C;stroke-width:4;stroke-linejoin:bevel;}
	.st1{fill:none;stroke:#EE255C;stroke-width:4;stroke-linejoin:bevel;stroke-miterlimit:10;}
	.st2{display:none;fill:none;stroke:#EE255C;stroke-width:4;stroke-linejoin:bevel;stroke-miterlimit:10;}
	.st3{display:none;}
	.st4{display:inline;fill:none;stroke:#EE255C;stroke-width:4;stroke-linejoin:bevel;stroke-miterlimit:10;}
</style>
<g id="Layer_4">
	<line class="st0" x1="169.2" y1="300.1" x2="159.2" y2="300.1"/>
	<polyline class="st0" points="116.8,274.7 177.2,331 197.1,331 163.8,300 	"/>
	<path class="st1" d="M119.6,321.9c9.5,9,23.1,11.2,34.5,6.5l-43-40.6C107.2,299.5,110,312.9,119.6,321.9z"/>
	<path class="st2" d="M172.7,308.3c3.7-12.8,0.3-25-8.8-33.5c-13-12.1-33.4-11.5-45.6,1.2"/>
</g>
<g id="Layer_3" class="st3">
	<path class="st4" d="M116.8,311c5,12.1,16.6,19.6,28.9,20l-22.8-54.5C114.5,285.5,111.7,298.9,116.8,311z"/>
	<path class="st1" d="M171.8,319.1c7.4-9,9.7-21.7,4.9-33.2c-6.9-16.4-25.7-24.2-42.1-17.6"/>
	<polyline class="st1" points="133.9,266.6 160.9,331 176.8,331 163.8,300 	"/>
	<line class="st1" x1="168.8" y1="300" x2="158.8" y2="300"/>
</g>
<g id="Layer_2">
	<path class="st2" d="M114.1,298.5c0,13.1,7.8,24.4,19,29.6v-59.2C121.9,274.1,114.1,285.4,114.1,298.5z"/>
	<path class="st2" d="M164.5,325.6c8.8-5.8,14.6-15.8,14.6-27.1c0-17.8-14.3-32.2-32-32.5"/>
	<polyline class="st2" points="147.1,264 147.1,330.9 163.5,330.9 163.5,300 	"/>
	<line class="st2" x1="168.5" y1="300" x2="158.5" y2="300"/>
</g>
</svg>
