<?xml version="1.0" encoding="utf-8"?>
<!-- Generator: Adobe Illustrator 23.0.0, SVG Export Plug-In . SVG Version: 6.00 Build 0)  -->
<svg version="1.1" id="Layer_1" xmlns="http://www.w3.org/2000/svg" xmlns:xlink="http://www.w3.org/1999/xlink" x="0px" y="0px"
	 viewBox="0 0 401.2 421.2" style="enable-background:new 0 0 401.2 421.2;" xml:space="preserve">
<style type="text/css">
	.st0{fill:none;stroke:#EE255C;stroke-width:4;stroke-linejoin:bevel;stroke-miterlimit:10;}
	.st1{fill:none;stroke:#EE255C;stroke-width:4;stroke-linejoin:bevel;}
	.st2{display:none;}
	.st3{display:inline;fill:none;stroke:#EE255C;stroke-width:4;stroke-linejoin:bevel;stroke-miterlimit:10;}
	.st4{display:inline;fill:none;stroke:#EE255C;stroke-width:4;stroke-linejoin:bevel;}
</style>
<g id="_x33__1_">
	<path class="st0" d="M267.8,354l23.4,21.8l0.3-0.5c1.4-2.1,2.1-4.6,2.1-7.2l0,0c0-6.8-5.3-14.1-14-14.1"/>
	<line class="st1" x1="279.6" y1="354" x2="242.9" y2="354"/>
	<polyline class="st1" points="294.8,419.2 287.8,403.4 261.9,371.5 247.9,354 247.9,419 	"/>
</g>
<g id="_x32_" class="st2">
	<path class="st3" d="M279.7,354c7.7,0,14,6.3,14,14l0,0c-0.3,4.7-1.1,5.5-2,7.3l-0.4,0.5L268,354"/>
	<line class="st4" x1="279.7" y1="354" x2="242.9" y2="354"/>
	<polyline class="st4" points="294.8,419.2 280.1,384 264.2,369.2 247.9,354 247.9,419 	"/>
</g>
<g id="_x31_" class="st2">
	<path class="st3" d="M275.9,354c7.7,0,14,6.3,14,14l0,0c0,7.7-6.3,14-14,14h-0.3l-11.7-28"/>
	<line class="st3" x1="275.9" y1="354" x2="242.9" y2="354"/>
	<polyline class="st3" points="294.9,419.2 285.1,396 265.5,396 247.9,354 247.9,419.2 	"/>
</g>
<g id="_x30_" class="st2">
	<line class="st3" x1="252.9" y1="419.1" x2="242.9" y2="419.1"/>
	<line class="st3" x1="299.7" y1="419.1" x2="289.7" y2="419.1"/>
	<polyline class="st3" points="247.9,419 247.9,396 247.9,354 	"/>
	<line class="st3" x1="272.4" y1="354" x2="242.9" y2="354"/>
	<path class="st3" d="M247.9,354v35h24.5c9.7,0,17.5-7.9,17.5-17.5l0,0c0-9.7-7.9-17.5-17.5-17.5"/>
	<polyline class="st3" points="294.7,419.1 272.4,389 247.9,389 247.9,354 247.9,419 	"/>
</g>
</svg>
