<?xml version="1.0" encoding="utf-8"?>
<!-- Generator: Adobe Illustrator 21.1.0, SVG Export Plug-In . SVG Version: 6.00 Build 0)  -->
<svg version="1.1" id="Layer_1" xmlns="http://www.w3.org/2000/svg" xmlns:xlink="http://www.w3.org/1999/xlink" x="0px" y="0px"
	 viewBox="0 0 401.2 421.2" style="enable-background:new 0 0 401.2 421.2;" xml:space="preserve">
<style type="text/css">
	.st0{display:none;fill:none;stroke:#EE255C;stroke-width:4;stroke-linejoin:bevel;stroke-miterlimit:10;}
	.st1{fill:none;stroke:#EE255C;stroke-width:4;stroke-linejoin:bevel;stroke-miterlimit:10;}
	.st2{display:none;}
	.st3{display:inline;fill:none;stroke:#EE255C;stroke-width:4;stroke-linecap:square;stroke-miterlimit:10;}
	.st4{display:inline;fill:none;stroke:#EE255C;stroke-width:4;stroke-linejoin:bevel;stroke-miterlimit:10;}
</style>
<g id="_x34_">
	<path class="st0" d="M251,307.5v-26.6l0,0L218,327c3.2,1.8,6.9,2.8,10.8,2.8C241,329.8,251,319.8,251,307.5"/>
	<line class="st1" x1="251" y1="307.5" x2="251" y2="282.1"/>
	<path class="st0" d="M251,284v-2.7V281l-0.3,0.3L218,327.1c3.2,1.8,6.9,2.8,10.8,2.8c12.3,0,22.3-10,22.3-22.3"/>
	<path class="st0" d="M206.4,307.5c0,3.2,0.7,6.2,1.8,8.9l37.6-51.6H256"/>
	<polyline class="st0" points="206.4,307.5 206.4,264.8 201.4,264.8 	"/>
</g>
<g id="_x33_" class="st2">
	<line class="st3" x1="251" y1="286.1" x2="251.1" y2="307.9"/>
	<path class="st3" d="M251.1,307.9c0.4,14.4-16.2,29.4-34.6,18.6l33.7-41.3l0.2,0.1l0.7,0.3v1.4"/>
	<path class="st4" d="M256.1,265.2H249l-41,50.5c-0.9-2.4-1.4-5-1.4-7.8"/>
	<polyline class="st4" points="206.5,307.9 206.5,265.2 201.5,265.2 	"/>
</g>
<g id="Layer_5" class="st2">
	<polyline class="st4" points="251.4,289.7 251.5,304.1 251.5,311 	"/>
	<path class="st4" d="M251.4,291.7h-2.6l-34.9,32.6l0,0c11.2,11.4,35.2,6,37.6-13.6"/>
	<path class="st4" d="M206.9,308c0,1.2,0.2,2.6,0.3,3.9l44.2-42.6v-3.9h5.1"/>
	<polyline class="st4" points="206.9,308 206.9,265.3 201.9,265.3 	"/>
</g>
<g id="Layer_4" class="st2">
	<polyline class="st4" points="249.5,265.3 244.5,265.3 244.5,308 	"/>
	<path class="st4" d="M249.4,265.3h-5l-26.9,64.5l0,0c10.1,2.2,25.7-3.6,26.9-21.8"/>
	<path class="st4" d="M199.8,308c0.1,7.1,2.5,10.5,4.9,13.9l21.7-52.1l2-4.5h-5"/>
	<polyline class="st4" points="199.9,308 199.9,265.3 194.9,265.3 	"/>
</g>
<g id="Layer_3" class="st2">
	<polyline class="st4" points="249.4,265.3 244.4,265.3 244.4,308 	"/>
	<path class="st4" d="M249.4,265.3h-19.3v63.5l0,0c8.4-3.2,14.3-11.3,14.3-20.8"/>
	<path class="st4" d="M199.8,308c0,9.5,6,16.7,14.4,19.9l-0.1-58.1v-4.5h5"/>
	<polyline class="st4" points="199.8,308 199.8,265.3 194.8,265.3 	"/>
</g>
</svg>
