<?xml version="1.0" encoding="utf-8"?>
<!-- Generator: Adobe Illustrator 23.0.0, SVG Export Plug-In . SVG Version: 6.00 Build 0)  -->
<svg version="1.1" id="Layer_2" xmlns="http://www.w3.org/2000/svg" xmlns:xlink="http://www.w3.org/1999/xlink" x="0px" y="0px"
	 viewBox="0 0 401.2 421.2" style="enable-background:new 0 0 401.2 421.2;" xml:space="preserve">
<style type="text/css">
	.st0{fill:none;stroke:#EE255C;stroke-width:4;stroke-linejoin:bevel;stroke-miterlimit:10;}
	.st1{display:none;fill:none;stroke:#EE255C;stroke-width:4;stroke-linejoin:bevel;stroke-miterlimit:10;}
	.st2{display:none;}
	.st3{display:inline;fill:none;stroke:#EE255C;stroke-width:4;stroke-linejoin:bevel;stroke-miterlimit:10;}
</style>
<g id="_x34_">
	<g id="Layer_5_copy">
		<path class="st0" d="M251.2,284l-0.9,1.1c0,0-27.4,36-32.1,42.2c17.8,8.4,33.1-4.7,33-19.5v-24.9"/>
	</g>
	<path class="st1" d="M206.7,307.8c0,1.8,0.8,7.1,1.7,8.8l34.7-47.8l2.9-3.8h10.2"/>
	<polyline class="st1" points="206.6,307.8 206.6,265.1 201.6,265.1 	"/>
</g>
<g id="_x33__1_">
	<path class="st1" d="M250.7,284.5l-0.4,0.6c0,0-28.9,35.5-33.7,41.3c18.4,10.3,34.6-2.6,34.6-18.7v-24.5"/>
	<path class="st1" d="M206.7,307.8c0,3,0.9,6.7,1.4,7.8l38.4-47.3l2.6-3.2l7.5,0.1"/>
	<polyline class="st1" points="206.6,307.8 206.6,265.1 201.6,265.1 	"/>
</g>
<g id="_x32__1_">
	<path class="st1" d="M250.9,289.9l-14.2,13.2c0,0-17.4,16.1-22.7,21.1c18.4,14.7,37.6-2.2,37.6-13.3v-22.5"/>
	<path class="st1" d="M207,307.9c0.1,2.1,0.1,3.1,0.3,3.9l44.1-41.1v-5.5h5.2"/>
	<polyline class="st1" points="207,307.9 207,265.2 195,265.2 	"/>
</g>
<g id="_x31__1_">
	<g id="Layer_7" class="st2">
		<path class="st3" d="M258.4,265.2l-7.1,0.1c0,0-24.5,58.9-26.7,64.4c13.1,2.7,27-7.6,27-21.8c0-4.8,0-41,0-41"/>
	</g>
	<path class="st1" d="M206.9,307.9c0.1,7.1,2.5,10.5,4.9,13.9l21.7-52.1l2-4.5h-5"/>
	<polyline class="st1" points="207,307.9 207,265.2 202,265.2 	"/>
</g>
<g id="_x30__1_">
	<path class="st1" d="M251.4,265.2l-21.2,0.2c0,0-0.4,57.3-0.4,63.3c4.3,0,14.7-9.7,14.7-20.8c0-4.8,0-41,0-41"/>
	<path class="st1" d="M199.9,307.9c0,9.5,6,16.7,14.4,19.9l-0.1-58.1v-4.5h5"/>
	<polyline class="st1" points="199.9,307.9 199.9,265.2 194.9,265.2 	"/>
</g>
</svg>
