<?xml version="1.0" encoding="utf-8"?>
<!-- Generator: Adobe Illustrator 23.0.1, SVG Export Plug-In . SVG Version: 6.00 Build 0)  -->
<svg version="1.1" id="Layer_1" xmlns="http://www.w3.org/2000/svg" xmlns:xlink="http://www.w3.org/1999/xlink" x="0px" y="0px"
	 viewBox="0 0 401.2 421.2" style="enable-background:new 0 0 401.2 421.2;" xml:space="preserve">
<style type="text/css">
	.st0{fill:none;stroke:#EE255C;stroke-width:4;stroke-linejoin:bevel;stroke-miterlimit:10;}
	.st1{display:none;}
	.st2{display:inline;fill:none;stroke:#EE255C;stroke-width:4;stroke-linejoin:bevel;stroke-miterlimit:10;}
	.st3{display:inline;fill:none;stroke:#EE255C;stroke-width:4;stroke-linejoin:bevel;}
</style>
<g id="_x38_">
	<line class="st0" x1="213.3" y1="129.5" x2="202.6" y2="155"/>
	<polyline class="st0" points="186.7,155 197.4,129.5 236.4,129.5 247,155 	"/>
	<polyline class="st0" points="213.9,90 201.2,120.3 232.5,120.3 224.8,101.9 216.9,120.3 	"/>
</g>
<g id="_x37_" class="st1">
	<line class="st2" x1="213.3" y1="131.8" x2="203.9" y2="154.5"/>
	<polyline class="st2" points="187.9,154.5 197.4,131.8 238.4,131.8 248.3,154.5 	"/>
	<polyline class="st2" points="215.1,89.5 203.3,117.8 232.6,117.8 226.1,101.4 219.1,117.8 	"/>
</g>
<g id="_x36_" class="st1">
	<line class="st2" x1="212.5" y1="133.7" x2="203.9" y2="154.5"/>
	<polyline class="st2" points="187.9,154.5 196.6,133.7 239.6,133.7 248.3,154.5 	"/>
	<polyline class="st2" points="215.1,89.5 204.4,115 231.7,115 226.1,101.4 220.3,115 	"/>
</g>
<g id="_x35_" class="st1">
	<line class="st2" x1="203.9" y1="154.5" x2="210.4" y2="138.9"/>
	<polyline class="st2" points="248.3,154.5 241.8,138.9 194.5,138.9 187.9,154.5 	"/>
	<polyline class="st2" points="215.1,89.5 206.6,109.9 229.6,109.9 226.1,101.4 222.5,109.9 	"/>
</g>
<g id="_x34__1_" class="st1">
	<line class="st2" x1="211.5" y1="135.7" x2="203.5" y2="154.8"/>
	<polyline class="st2" points="187.6,154.8 195.6,135.7 239.9,135.7 247.9,154.8 	"/>
	<polyline class="st2" points="220.7,113.7 225.7,101.8 230.8,113.7 204.8,113.7 214.8,89.8 	"/>
</g>
<g id="_x33_" class="st1">
	<polyline class="st2" points="247.9,154.9 240.4,136.9 195.1,136.9 187.5,154.9 	"/>
	<line class="st2" x1="211" y1="137" x2="203.5" y2="154.9"/>
	<line class="st2" x1="203.5" y1="154.9" x2="188.5" y2="154.9"/>
	<line class="st2" x1="242.3" y1="154.9" x2="252.3" y2="154.9"/>
	<polyline class="st2" points="214.7,89.9 205.2,112.8 230.3,112.8 225.7,101.9 221.2,112.8 	"/>
	<line class="st2" x1="203.5" y1="154.9" x2="208.5" y2="154.9"/>
	<line class="st2" x1="209.7" y1="89.9" x2="225.7" y2="89.9"/>
	<line class="st2" x1="182.5" y1="154.9" x2="187.5" y2="154.9"/>
</g>
<g id="_x32_" class="st1">
	<polyline class="st3" points="187.9,155 194.5,139.4 241.8,139.4 248.3,155 	"/>
	<line class="st3" x1="210.4" y1="139.4" x2="203.9" y2="155"/>
	<line class="st3" x1="242.6" y1="155" x2="252.6" y2="155"/>
	<polyline class="st3" points="215.1,90 206.6,110.4 229.6,110.4 226.1,101.9 222.6,110.4 	"/>
	<line class="st3" x1="203.9" y1="155" x2="208.9" y2="155"/>
	<line class="st3" x1="210.1" y1="90" x2="226.1" y2="90"/>
</g>
<g id="_x31_" class="st1">
	<polyline class="st2" points="187.9,155 197.6,131.8 238.6,131.8 248.2,155 	"/>
	<line class="st2" x1="213.5" y1="131.8" x2="203.9" y2="155"/>
	<line class="st2" x1="242.6" y1="155" x2="252.6" y2="155"/>
	<polyline class="st2" points="215.1,90 203.4,117.8 218,117.8 232.8,117.8 226,101.9 219.4,117.8 	"/>
	<line class="st2" x1="203.9" y1="155" x2="208.9" y2="155"/>
	<line class="st2" x1="182.9" y1="155" x2="187.9" y2="155"/>
	<line class="st2" x1="210.1" y1="90" x2="226.1" y2="90"/>
</g>
<g id="_x30_" class="st1">
	<polyline class="st2" points="187.9,155 200.4,125 235.6,124.7 248.2,155 	"/>
	<line class="st2" x1="216.5" y1="124.7" x2="203.9" y2="155"/>
	<line class="st2" x1="203.9" y1="155" x2="187.9" y2="155"/>
	<line class="st2" x1="242.6" y1="155" x2="252.6" y2="155"/>
	<polyline class="st2" points="215.1,90 200.4,125 235.6,124.7 226,101.9 216.5,124.7 	"/>
	<line class="st2" x1="203.9" y1="155" x2="208.9" y2="155"/>
	<line class="st2" x1="210.1" y1="90" x2="226.1" y2="90"/>
	<line class="st2" x1="182.9" y1="155" x2="187.9" y2="155"/>
</g>
</svg>
