<?xml version="1.0" encoding="utf-8"?>
<!-- Generator: Adobe Illustrator 23.0.1, SVG Export Plug-In . SVG Version: 6.00 Build 0)  -->
<svg version="1.1" id="Layer_1" xmlns="http://www.w3.org/2000/svg" xmlns:xlink="http://www.w3.org/1999/xlink" x="0px" y="0px"
	 viewBox="0 0 401.2 421.2" style="enable-background:new 0 0 401.2 421.2;" xml:space="preserve">
<style type="text/css">
	.st0{fill:none;stroke:#EE255C;stroke-width:4;stroke-linejoin:bevel;stroke-miterlimit:10;}
	.st1{fill:none;stroke:#EE255C;stroke-width:4;stroke-linejoin:bevel;}
	.st2{display:none;}
	.st3{display:inline;fill:none;stroke:#EE255C;stroke-width:4;stroke-linejoin:bevel;stroke-miterlimit:10;}
	.st4{display:inline;fill:none;stroke:#EE255C;stroke-width:4;stroke-linejoin:bevel;}
	.st5{display:inline;}
</style>
<g id="_x38_">
	<path class="st0" d="M284.3,178l7.5,28l6.5,0c11.7-0.5,13.9-10,14-13.5l0,0c0-6.8-4.5-14.5-13.2-14.5"/>
	<line class="st1" x1="299" y1="178" x2="265.9" y2="178"/>
	<polyline class="st1" points="317.8,242.7 307.4,220 281.4,220 270.3,178 270.3,243.2 	"/>
</g>
<g id="_x37_" class="st2">
	<path class="st3" d="M286.8,177.4l11.9,28h1.3c11.3-1.5,12.9-10.8,13-14.3l0,0c0-6.8-5.3-13.8-14-13.8"/>
	<line class="st4" x1="299" y1="177.4" x2="265.9" y2="177.4"/>
	<polyline class="st4" points="317.8,242.7 308.1,219.4 288.5,219.4 270.9,177.4 270.9,242.4 	"/>
</g>
<g id="_x36_" class="st2">
	<path class="st3" d="M286.8,177.4l16,27.5l2-0.8c6.9-2.8,8.1-9.5,8.2-13l0,0c0-6.8-5.3-13.8-14-13.8"/>
	<line class="st4" x1="299" y1="177.4" x2="265.9" y2="177.4"/>
	<polyline class="st4" points="317.8,242.7 308.2,219.8 295.3,219.4 270.9,177.4 270.9,242.4 	"/>
</g>
<g id="_x35_" class="st2">
	<path class="st3" d="M290.8,177.4l23.4,21.8l0.3-0.5c1-1.6,2-3.8,2.1-7.3l0,0c0-6.8-5.3-14-14-14"/>
	<line class="st4" x1="302.6" y1="177.4" x2="265.9" y2="177.4"/>
	<polyline class="st4" points="317.8,242.7 308.2,219.8 303,207.4 270.9,177.4 270.9,242.4 	"/>
</g>
<g id="_x34_" class="st2">
	<path class="st3" d="M287.3,177.8l18.5,25.9l0.3-0.2c2.7-1.3,6.7-6.4,6.4-11.7l0,0c0-6.8-5.3-14-14-14"/>
	<line class="st4" x1="302.6" y1="178" x2="265.9" y2="178"/>
	<polyline class="st4" points="317.8,243.2 307.7,219.8 300.6,219.8 270.9,178 270.9,243 	"/>
</g>
<g id="_x33_" class="st2">
	<path class="st3" d="M290.8,178l23.4,21.8l0.3-0.5c1.4-2.1,2.1-4.6,2.1-7.2l0,0c0-6.8-5.2-14-13.9-14"/>
	<line class="st4" x1="302.6" y1="178" x2="265.9" y2="178"/>
	<polyline class="st4" points="317.8,243.2 310.8,227.4 284.9,195.5 270.9,178 270.9,243 	"/>
</g>
<g id="_x32__1_" class="st2">
	<path class="st3" d="M290.8,178l23.4,21.8l0.3-0.5c1.4-2.1,2.1-4.6,2.1-7.2l0,0c0-6.8-5.2-14-13.9-14"/>
	<line class="st4" x1="302.6" y1="178" x2="265.9" y2="178"/>
	<polyline class="st4" points="317.8,243.2 303.1,208 287.2,193.2 270.9,178 270.9,243 	"/>
</g>
<g id="_x31_" class="st2">
	<g id="Layer_5_1_" class="st5">
		<path class="st0" d="M286.8,178l11.7,28h1.3c5.3,0,13-5.2,13-14l0,0c0-6.8-5.2-14-14-14"/>
		<line class="st0" x1="298.8" y1="178" x2="265.8" y2="178"/>
		<polyline class="st0" points="317.8,243.2 308,220 288.4,220 270.8,178 270.8,243.2 		"/>
	</g>
</g>
<g id="_x30_" class="st2">
	<g id="Layer_4_2_" class="st5">
		<line class="st0" x1="275.8" y1="243.1" x2="265.8" y2="243.1"/>
		<line class="st0" x1="322.6" y1="243.1" x2="312.6" y2="243.1"/>
		<polyline class="st0" points="270.8,243 270.8,220 270.8,178 		"/>
		<line class="st0" x1="295.3" y1="178" x2="265.8" y2="178"/>
		<path class="st0" d="M270.8,178v35h24.5c9.7,0,17.5-7.9,17.5-17.5l0,0c0-9.7-7.9-17.5-17.5-17.5"/>
		<polyline class="st0" points="317.6,243.1 295.3,213 270.8,213 270.8,178 270.8,243 		"/>
	</g>
</g>
</svg>
