<?xml version="1.0" encoding="utf-8"?>
<!-- Generator: Adobe Illustrator 23.0.1, SVG Export Plug-In . SVG Version: 6.00 Build 0)  -->
<svg version="1.1" id="Layer_1" xmlns="http://www.w3.org/2000/svg" xmlns:xlink="http://www.w3.org/1999/xlink" x="0px" y="0px"
	 viewBox="0 0 401.2 421.2" style="enable-background:new 0 0 401.2 421.2;" xml:space="preserve">
<style type="text/css">
	.st0{fill:none;stroke:#EE255C;stroke-width:4;stroke-linejoin:bevel;stroke-miterlimit:10;}
	.st1{display:none;}
	.st2{display:inline;fill:none;stroke:#EE255C;stroke-width:4;stroke-linejoin:bevel;stroke-miterlimit:10;}
	.st3{display:inline;fill:none;stroke:#EE255C;stroke-width:4;stroke-linecap:square;stroke-miterlimit:10;}
	.st4{display:inline;fill:none;stroke:#EE255C;stroke-width:4;stroke-linejoin:bevel;}
</style>
<g id="_x35_">
	<path class="st0" d="M119.7,321.6c9.5,8.9,23.2,11,34.6,6.4l-43.2-40.4C107.3,299.3,110.2,312.7,119.7,321.6z"/>
	<path class="st0" d="M172.8,307.7c3.9-11.2,0.3-23.3-7-31.8c-9.2-10.5-30.6-16.4-49,0.6"/>
	<polyline class="st0" points="118.3,275.5 177.2,330.4 197.2,330.4 163.4,299.5 	"/>
	<line class="st0" x1="169.3" y1="299.5" x2="159.3" y2="299.5"/>
</g>
<g id="_x34__2_" class="st1">
	<path class="st2" d="M119.9,317.2c7.6,10.6,20.6,15.3,32.7,13l-34.5-48.1C112.1,292.9,112.3,306.6,119.9,317.2z"/>
	<path class="st2" d="M174.7,314.4c6.2-11.3,5.5-23.2-0.4-32.9c-9.2-15.2-30.4-21-46.5-9.8"/>
	<polyline class="st2" points="164.3,299.9 186.5,330.8 170.1,330.8 128.9,273.3 	"/>
	<line class="st2" x1="170.2" y1="299.9" x2="160.2" y2="299.9"/>
</g>
<g id="_x33_" class="st1">
	<path class="st3" d="M114.2,298.5c0,18,14.6,32.5,32.5,32.5c2.9,0,5.8-0.4,8.5-1.1l-37.5-46.1C115.5,288.2,114.2,293.2,114.2,298.5
		z"/>
	<path class="st2" d="M127.8,274.8l-1.2-1.6c5.5-4.5,12.6-7.1,20.2-7.1c17.9,0,32.5,14.5,32.5,32.5c0,5.2-1.3,10.2-3.5,14.6"/>
	<polyline class="st2" points="165,300.1 190.2,331 173.8,331.1 126.6,273.1 	"/>
	<line class="st2" x1="161.6" y1="300.1" x2="171.6" y2="300.1"/>
</g>
<g id="_x32_" class="st1">
	<line class="st4" x1="169.2" y1="300.1" x2="159.2" y2="300.1"/>
	<polyline class="st4" points="116.8,274.7 177.2,331 197.1,331 163.8,300 	"/>
	<path class="st2" d="M119.6,321.9c9.5,9,23.1,11.2,34.5,6.5l-43-40.6C107.2,299.5,110,312.9,119.6,321.9z"/>
	<path class="st2" d="M172.7,308.3c3.7-12.8,0.3-25-8.8-33.5c-13-12.1-33.4-11.5-45.6,1.2"/>
</g>
<g id="_x31_" class="st1">
	<path class="st2" d="M116.8,311c5,12.1,16.6,19.6,28.9,20l-22.8-54.5C114.5,285.5,111.7,298.9,116.8,311z"/>
	<path class="st2" d="M171.8,319.1c7.4-9,9.7-21.7,4.9-33.2c-6.9-16.4-25.7-24.2-42.1-17.6"/>
	<polyline class="st2" points="133.9,266.6 160.9,331 176.8,331 163.8,300 	"/>
	<line class="st2" x1="168.8" y1="300" x2="158.8" y2="300"/>
</g>
<g id="_x30_" class="st1">
	<path class="st2" d="M114.1,298.5c0,13.1,7.8,24.4,19,29.6v-59.2C121.9,274.1,114.1,285.4,114.1,298.5z"/>
	<path class="st2" d="M164.5,325.6c8.8-5.8,14.6-15.8,14.6-27.1c0-17.8-14.3-32.2-32-32.5"/>
	<polyline class="st2" points="147.1,264 147.1,330.9 163.5,330.9 163.5,300 	"/>
	<line class="st2" x1="168.5" y1="300" x2="158.5" y2="300"/>
</g>
</svg>
