<?xml version="1.0" encoding="utf-8"?>
<!-- Generator: Adobe Illustrator 21.1.0, SVG Export Plug-In . SVG Version: 6.00 Build 0)  -->
<svg version="1.1" id="Layer_1" xmlns="http://www.w3.org/2000/svg" xmlns:xlink="http://www.w3.org/1999/xlink" x="0px" y="0px"
	 viewBox="0 0 401.2 421.2" style="enable-background:new 0 0 401.2 421.2;" xml:space="preserve">
<style type="text/css">
	.st0{fill:none;stroke:#EE255C;stroke-width:4;stroke-linejoin:bevel;stroke-miterlimit:10;}
	.st1{display:none;}
	.st2{display:inline;fill:none;stroke:#EE255C;stroke-width:4;stroke-linejoin:bevel;}
	.st3{display:inline;fill:none;stroke:#EE255C;stroke-width:4;stroke-linejoin:bevel;stroke-miterlimit:10;}
	.st4{display:none;fill:none;stroke:#EE255C;stroke-width:4;stroke-linejoin:bevel;stroke-miterlimit:10;}
</style>
<g id="_x33_">
	<polyline class="st0" points="324.9,66.9 317.4,48.9 272.1,48.9 264.5,66.9 	"/>
	<line class="st0" x1="288" y1="49" x2="280.5" y2="66.9"/>
	<line class="st0" x1="280.5" y1="66.9" x2="265.5" y2="66.9"/>
	<line class="st0" x1="319.3" y1="66.9" x2="329.3" y2="66.9"/>
	<polyline class="st0" points="291.7,1.9 282.2,24.8 307.3,24.8 302.7,13.9 298.2,24.8 	"/>
	<line class="st0" x1="280.5" y1="66.9" x2="285.5" y2="66.9"/>
	<line class="st0" x1="286.7" y1="1.9" x2="302.7" y2="1.9"/>
	<line class="st0" x1="259.5" y1="66.9" x2="264.5" y2="66.9"/>
</g>
<g id="_x32_" class="st1">
	<polyline class="st2" points="264.9,67 271.5,51.4 318.8,51.4 325.3,67 	"/>
	<line class="st2" x1="287.4" y1="51.4" x2="280.9" y2="67"/>
	<line class="st2" x1="319.6" y1="67" x2="329.6" y2="67"/>
	<polyline class="st2" points="292.1,2 283.6,22.4 306.6,22.4 303.1,13.9 299.6,22.4 	"/>
	<line class="st2" x1="280.9" y1="67" x2="285.9" y2="67"/>
	<line class="st2" x1="287.1" y1="2" x2="303.1" y2="2"/>
</g>
<g id="_x31_" class="st1">
	<polyline class="st3" points="264.9,67 274.6,43.8 315.6,43.8 325.2,67 	"/>
	<line class="st3" x1="290.5" y1="43.8" x2="280.9" y2="67"/>
	<line class="st3" x1="319.6" y1="67" x2="329.6" y2="67"/>
	<polyline class="st3" points="292.1,2 280.4,29.8 295,29.8 309.8,29.8 303,13.9 296.4,29.8 	"/>
	<line class="st3" x1="280.9" y1="67" x2="285.9" y2="67"/>
	<line class="st3" x1="259.9" y1="67" x2="264.9" y2="67"/>
	<line class="st3" x1="287.1" y1="2" x2="303.1" y2="2"/>
</g>
<g id="_x30_">
	<polyline class="st4" points="264.9,67 277.4,37 312.6,36.7 325.2,67 	"/>
	<line class="st4" x1="293.5" y1="36.7" x2="280.9" y2="67"/>
	<line class="st4" x1="280.9" y1="67" x2="264.9" y2="67"/>
	<line class="st4" x1="319.6" y1="67" x2="329.6" y2="67"/>
	<polyline class="st4" points="292.1,2 277.4,37 312.6,36.7 303,13.9 293.5,36.7 	"/>
	<line class="st4" x1="280.9" y1="67" x2="285.9" y2="67"/>
	<line class="st4" x1="287.1" y1="2" x2="303.1" y2="2"/>
	<line class="st4" x1="259.9" y1="67" x2="264.9" y2="67"/>
</g>
</svg>
