<?xml version="1.0" encoding="utf-8"?>
<!-- Generator: Adobe Illustrator 23.0.0, SVG Export Plug-In . SVG Version: 6.00 Build 0)  -->
<svg version="1.1" xmlns="http://www.w3.org/2000/svg" xmlns:xlink="http://www.w3.org/1999/xlink" x="0px" y="0px"
	 viewBox="0 0 401.2 421.2" style="enable-background:new 0 0 401.2 421.2;" xml:space="preserve">
<style type="text/css">
	.st0{fill:none;stroke:#EE255C;stroke-width:4;stroke-linejoin:bevel;}
	.st1{fill:none;stroke:#EE255C;stroke-width:4;stroke-linejoin:bevel;stroke-miterlimit:10;}
</style>
<g id="_x32_">
	<line class="st0" x1="169.3" y1="36.1" x2="159.3" y2="36.1"/>
	<polyline class="st0" points="116.9,10.7 177.3,67 197.2,67 163.9,36 	"/>
	<path class="st1" d="M119.7,57.9c9.5,9,23.1,11.2,34.5,6.5l-43-40.6C107.3,35.5,110.1,48.9,119.7,57.9z"/>
	<path class="st1" d="M172.8,44.3c3.7-12.8,0.3-25-8.8-33.5C151-1.3,130.6-0.7,118.4,12"/>
</g>
<g id="_x31_">
	<path class="st1" d="M116.9,47c5,12.1,16.6,19.6,28.9,20l-22.8-54.5C114.6,21.5,111.8,34.9,116.9,47z"/>
	<path class="st1" d="M171.9,55.1c7.4-9,9.7-21.7,4.9-33.2c-6.9-16.4-25.7-24.2-42.1-17.6"/>
	<polyline class="st1" points="134,2.6 161,67 176.9,67 163.9,36 	"/>
	<line class="st1" x1="168.9" y1="36" x2="158.9" y2="36"/>
</g>
<g id="_x30_">
	<path class="st1" d="M114.2,34.5c0,13.1,7.8,24.4,19,29.6V4.9C122,10.1,114.2,21.4,114.2,34.5z"/>
	<path class="st1" d="M164.6,61.6c8.8-5.8,14.6-15.8,14.6-27.1c0-17.8-14.3-32.2-32-32.5"/>
	<polyline class="st1" points="147.2,0 147.2,66.9 163.6,66.9 163.6,36 	"/>
	<line class="st1" x1="168.6" y1="36" x2="158.6" y2="36"/>
</g>
</svg>
