<?xml version="1.0" encoding="utf-8"?>
<!-- Generator: Adobe Illustrator 23.0.0, SVG Export Plug-In . SVG Version: 6.00 Build 0)  -->
<svg version="1.1" xmlns="http://www.w3.org/2000/svg" xmlns:xlink="http://www.w3.org/1999/xlink" x="0px" y="0px"
	 viewBox="0 0 401.2 421.2" style="enable-background:new 0 0 401.2 421.2;" xml:space="preserve">
<style type="text/css">
	.st0{fill:none;stroke:#EE255C;stroke-width:4;stroke-linejoin:bevel;}
	.st1{fill:none;stroke:#EE255C;stroke-width:4;stroke-linejoin:bevel;stroke-miterlimit:10;}
</style>
<g id="Layer_7">
	<path class="st0" d="M187.8,199.9c-5.8,17,3.2,35.5,20.2,41.3c7.8,2.7,16.4,2.3,24-1.1L187.8,199.9z"/>
	<path class="st0" d="M242.5,232.4c12.3-13.1,11.6-33.7-1.6-46c-13.1-12.3-33.7-11.6-46,1.6L242.5,232.4z"/>
	<line class="st0" x1="195" y1="188.1" x2="191.5" y2="191.8"/>
	<line class="st0" x1="242.6" y1="232.4" x2="239" y2="236.1"/>
</g>
<g id="Layer_5">
	<line class="st1" x1="231.4" y1="240.3" x2="226.9" y2="242.2"/>
	<line class="st1" x1="206.4" y1="180.3" x2="201.9" y2="182.3"/>
	<path class="st0" d="M194.6,188.1c-12.5,12.9-12.1,33.5,0.9,46c6,5.8,13.9,9,22.2,9.1L194.6,188.1z"/>
	<path class="st0" d="M231.7,240.3c16.6-7,24.3-26,17.4-42.6c-7-16.6-26-24.3-42.6-17.4L231.7,240.3z"/>
</g>
<g id="Layer_4">
	<path class="st0" d="M205.3,180.7c-16.4,7.3-23.8,26.5-16.5,42.9c3.4,7.6,9.5,13.6,17.1,16.8L205.3,180.7z"/>
	<path class="st0" d="M218.9,242.9c18,0,32.5-14.6,32.5-32.5s-14.6-32.5-32.5-32.5L218.9,242.9z"/>
	<line class="st0" x1="218.9" y1="177.9" x2="213.7" y2="177.9"/>
	<line class="st0" x1="218.8" y1="242.9" x2="213.7" y2="242.9"/>
</g>
</svg>
