<?xml version="1.0" encoding="utf-8"?>
<!-- Generator: Adobe Illustrator 23.0.1, SVG Export Plug-In . SVG Version: 6.00 Build 0)  -->
<svg version="1.1" id="Layer_1" xmlns="http://www.w3.org/2000/svg" xmlns:xlink="http://www.w3.org/1999/xlink" x="0px" y="0px"
	 viewBox="0 0 401.2 421.2" style="enable-background:new 0 0 401.2 421.2;" xml:space="preserve">
<style type="text/css">
	.st0{display:none;}
	.st1{display:inline;}
	.st2{fill:none;stroke:#EE255C;stroke-width:4;stroke-linejoin:bevel;stroke-miterlimit:10;}
	.st3{display:inline;fill:none;stroke:#EE255C;stroke-width:4;stroke-linejoin:bevel;stroke-miterlimit:10;}
	.st4{display:none;fill:none;stroke:#EE255C;stroke-width:4;stroke-linejoin:bevel;stroke-miterlimit:10;}
</style>
<g>
	<g id="_x35_" class="st0">
		<g id="Layer_5_copy" class="st1">
			<path class="st2" d="M250.8,26l-2.5,2.3c0,0-29,27.1-34.5,32.1c17,14.6,37.5,0.9,37.5-16.3V24.6"/>
		</g>
		<path class="st2" d="M206.8,44.2c0,1.8,0,2.5,0.3,3.9l44.3-41.2V1.8h5"/>
		<polyline class="st2" points="206.4,44.6 206.4,1.9 201.4,1.9 		"/>
	</g>
	<g id="_x34__1_" class="st0">
		<g id="Layer_5_copy_1_" class="st1">
			<path class="st2" d="M251,20.8l-0.9,1.1c0,0-27.4,36-32.1,42.2c17.8,8.4,33.1-4.7,33-19.5V19.7"/>
		</g>
		<path class="st3" d="M206.5,44.6c0,1.8,0.8,7.1,1.7,8.8L243,5.7l2.8-3.9H256"/>
		<polyline class="st3" points="206.4,44.6 206.4,1.9 201.4,1.9 		"/>
	</g>
	<g id="_x33_" class="st0">
		<path class="st3" d="M250.5,21.3l-0.4,0.6c0,0-28.9,35.5-33.7,41.3c18.4,10.3,34.6-2.6,34.6-18.7V20.1"/>
		<path class="st3" d="M256,1.9h-7.1l-41,50.5c-0.9-2.4-1.4-5-1.4-7.8"/>
		<polyline class="st3" points="206.4,44.6 206.4,1.9 201.4,1.9 		"/>
	</g>
	<g id="_x32_" class="st0">
		<path class="st3" d="M250.7,26.7l-14.2,13.2c0,0-17.4,16.1-22.7,21.1c18.4,14.7,37.6-2.2,37.6-13.3V25.2"/>
		<path class="st3" d="M206.8,44.7c0.1,1.3,0.1,2.6,0.3,3.9c2-1.8,3.9-3.7,5.9-5.5c4.5-4.2,9-8.3,13.4-12.5
			c4.9-4.5,9.7-9.1,14.6-13.6c3.1-2.9,6.3-5.8,9.4-8.8c0.2-0.2,0.6-0.5,0.8-0.7c0.2-0.4,0.1-1.1,0.1-1.5c0-0.8,0-1.7,0-2.5
			c0-0.2-0.2-1.3,0-1.4c0.1-0.1,1,0,1.2,0c0.8,0,1.6,0,2.5,0c0.5,0,0.9,0,1.4,0"/>
		<polyline class="st3" points="206.8,44.7 206.8,2 201.8,2 		"/>
	</g>
	<g id="_x31_">
		<g id="Layer_7">
			<path class="st2" d="M251.2,2l-7.1,0.1c0,0-24.5,58.9-26.7,64.4c13.1,2.7,27-7.6,27-21.8c0-4.8,0-41,0-41"/>
		</g>
		<path class="st4" d="M199.7,44.7c0.1,7.1,2.5,10.5,4.9,13.9l21.7-52.1l2-4.5h-5"/>
		<polyline class="st4" points="199.8,44.7 199.8,2 194.8,2 		"/>
	</g>
	<g id="_x30_" class="st0">
		<path class="st3" d="M251.2,2L230,2.2c0,0-0.4,57.3-0.4,63.3c4.3,0,14.7-9.7,14.7-20.8c0-4.8,0-41,0-41"/>
		<path class="st3" d="M199.7,44.7c0,9.5,6,16.7,14.4,19.9L214,6.5V2h5"/>
		<polyline class="st3" points="199.7,44.7 199.7,2 194.7,2 		"/>
	</g>
</g>
</svg>
