<?xml version="1.0" encoding="utf-8"?>
<!-- Generator: Adobe Illustrator 23.0.0, SVG Export Plug-In . SVG Version: 6.00 Build 0)  -->
<svg version="1.1" xmlns="http://www.w3.org/2000/svg" xmlns:xlink="http://www.w3.org/1999/xlink" x="0px" y="0px"
	 viewBox="0 0 401.2 421.2" style="enable-background:new 0 0 401.2 421.2;" xml:space="preserve">
<style type="text/css">
	.st0{display:none;fill:none;stroke:#EE255C;stroke-width:4;stroke-linejoin:bevel;stroke-miterlimit:10;}
	.st1{display:none;fill:none;stroke:#EE255C;stroke-width:4;stroke-linejoin:bevel;}
	.st2{fill:none;stroke:#EE255C;stroke-width:4;stroke-linejoin:bevel;}
	.st3{display:none;}
	.st4{display:inline;}
	.st5{fill:none;stroke:#EE255C;stroke-width:4;stroke-linejoin:bevel;stroke-miterlimit:10;}
</style>
<g id="Layer_2">
	<path class="st0" d="M290.8,178l23.4,21.8l0.3-0.5c1.4-2.1,2.1-4.6,2.1-7.2l0,0c0-6.8-5.2-14-13.9-14"/>
	<line class="st1" x1="302.6" y1="178" x2="265.9" y2="178"/>
	<polyline class="st2" points="317.8,243.2 303.1,208 287.2,193.2 270.9,178 270.9,243 	"/>
</g>
<g id="Layer_3" class="st3">
	<g id="Layer_5_1_" class="st4">
		<path class="st5" d="M286.8,178l11.7,28h1.3c5.3,0,13-5.2,13-14l0,0c0-6.8-5.2-14-14-14"/>
		<line class="st5" x1="298.8" y1="178" x2="265.8" y2="178"/>
		<polyline class="st5" points="317.8,243.2 308,220 288.4,220 270.8,178 270.8,243.2 		"/>
	</g>
</g>
<g id="Layer_4_1_" class="st3">
	<g id="Layer_4_2_" class="st4">
		<line class="st5" x1="275.8" y1="243.1" x2="265.8" y2="243.1"/>
		<line class="st5" x1="322.6" y1="243.1" x2="312.6" y2="243.1"/>
		<polyline class="st5" points="270.8,243 270.8,220 270.8,178 		"/>
		<line class="st5" x1="295.3" y1="178" x2="265.8" y2="178"/>
		<path class="st5" d="M270.8,178v35h24.5c9.7,0,17.5-7.9,17.5-17.5l0,0c0-9.7-7.9-17.5-17.5-17.5"/>
		<polyline class="st5" points="317.6,243.1 295.3,213 270.8,213 270.8,178 270.8,243 		"/>
	</g>
</g>
</svg>
