<?xml version="1.0" encoding="utf-8"?>
<!-- Generator: Adobe Illustrator 23.0.1, SVG Export Plug-In . SVG Version: 6.00 Build 0)  -->
<svg version="1.1" id="Layer_1" xmlns="http://www.w3.org/2000/svg" xmlns:xlink="http://www.w3.org/1999/xlink" x="0px" y="0px"
	 viewBox="0 0 401.2 421.2" style="enable-background:new 0 0 401.2 421.2;" xml:space="preserve">
<style type="text/css">
	.st0{fill:none;stroke:#EE255C;stroke-width:4;stroke-linejoin:bevel;stroke-miterlimit:10;}
	.st1{display:none;fill:none;stroke:#EE255C;stroke-width:4;stroke-linejoin:bevel;stroke-miterlimit:10;}
	.st2{display:none;}
	.st3{display:inline;fill:none;stroke:#EE255C;stroke-width:4;stroke-linejoin:bevel;stroke-miterlimit:10;}
	.st4{display:inline;}
</style>
<g id="_x39_">
	<path class="st0" d="M249.4,266.5h-27.7c0.4,2.9,10.5,49.3,13.1,61.1c3.6-2.7,9.7-8,9.7-18.9v-42.1"/>
	<path class="st1" d="M199.8,309.2c0,5,3.2,21,21.9,22.3l-12.6-58.8l-1.3-6.2h-13"/>
	<polyline class="st1" points="199.8,309.2 199.8,266.5 194.8,266.5 	"/>
</g>
<g id="_x38_" class="st2">
	<path class="st3" d="M248.7,266H238c-0.7,2.5-14.1,52.8-17.3,65c11.6,0,23-7.9,23-22.3l0.1-42.7"/>
	<path class="st3" d="M199.1,308.7c0,5,2.1,12.7,8.7,17.7l14.4-53.9l1.7-6.5h-5"/>
	<polyline class="st3" points="199.1,308.7 199.1,266 194.1,266 	"/>
</g>
<g id="_x37_" class="st2">
	<path class="st3" d="M249.1,266h-5c-0.3-0.3-22.9,54.9-27,64.5c12,3,27.4-6.4,27-21.8V266"/>
	<path class="st3" d="M199.5,308c0,1.8,0.4,9.4,4.9,14.6l20.9-49.9l2.8-6.8h-5"/>
	<polyline class="st3" points="199.5,308 199.5,265.7 194.5,265.7 	"/>
</g>
<g id="_x36_" class="st2">
	<path class="st3" d="M251.2,277.5l-5.4,9.3c0,0-20.5,34.3-24.9,42.6c12.6,5.6,31.3-3.9,30.7-20.7v-32.3"/>
	<path class="st3" d="M206.8,307.8c0,1.8,0.7,9.2,3.5,12.7l28.7-49.1l3.2-5.4h14.3"/>
	<polyline class="st3" points="206.8,307.8 206.8,265.5 201.8,265.5 	"/>
</g>
<g id="_x35_" class="st2">
	<path class="st3" d="M250.9,289.7l-0.9,1.1c0,0-30.2,28-36.2,33.6c15.2,13.7,37.5,2.3,37.4-16v-20.1"/>
	<path class="st3" d="M206.7,307.8c0,1.8,0.1,2.6,0.4,4.3l44.2-41.2v-5.4h5"/>
	<polyline class="st3" points="206.8,307.8 206.8,265.5 201.8,265.5 	"/>
</g>
<g id="_x34__1_" class="st2">
	<g id="Layer_5_copy_1_" class="st4">
		<path class="st0" d="M251.2,284l-0.9,1.1c0,0-27.4,36-32.1,42.2c17.8,8.4,33.1-4.7,33-19.5v-24.9"/>
	</g>
	<path class="st3" d="M206.7,307.8c0,1.8,0.8,7.1,1.7,8.8l34.7-47.8l2.9-3.8h10.2"/>
	<polyline class="st3" points="206.6,307.8 206.6,265.1 201.6,265.1 	"/>
</g>
<g id="_x33__1_" class="st2">
	<path class="st3" d="M250.7,284.5l-0.4,0.6c0,0-28.9,35.5-33.7,41.3c18.4,10.3,34.6-2.6,34.6-18.7v-24.5"/>
	<path class="st3" d="M206.7,307.8c0,3,0.9,6.7,1.4,7.8l38.4-47.3l2.6-3.2l7.5,0.1"/>
	<polyline class="st3" points="206.6,307.8 206.6,265.1 201.6,265.1 	"/>
</g>
<g id="_x32__1_" class="st2">
	<path class="st3" d="M250.9,289.9l-14.2,13.2c0,0-17.4,16.1-22.7,21.1c18.4,14.7,37.6-2.2,37.6-13.3v-22.5"/>
	<path class="st3" d="M207,307.9c0.1,2.1,0.1,3.1,0.3,3.9l44.1-41.1v-5.5h5.2"/>
	<polyline class="st3" points="207,307.9 207,265.2 200.6,265.2 	"/>
</g>
<g id="_x31__1_" class="st2">
	<g id="Layer_7" class="st4">
		<path class="st0" d="M258.4,265.2l-7.1,0.1c0,0-24.5,58.9-26.7,64.4c13.1,2.7,27-7.6,27-21.8c0-4.8,0-41,0-41"/>
	</g>
	<path class="st3" d="M206.9,307.9c0.1,7.1,2.5,10.5,4.9,13.9l21.7-52.1l2-4.5h-5"/>
	<polyline class="st3" points="207,307.9 207,265.2 202,265.2 	"/>
</g>
<g id="_x30__1_" class="st2">
	<path class="st3" d="M251.4,265.2l-21.2,0.2c0,0-0.4,57.3-0.4,63.3c4.3,0,14.7-9.7,14.7-20.8c0-4.8,0-41,0-41"/>
	<path class="st3" d="M199.9,307.9c0,9.5,6,16.7,14.4,19.9l-0.1-58.1v-4.5h5"/>
	<polyline class="st3" points="199.9,307.9 199.9,265.2 194.9,265.2 	"/>
</g>
</svg>
