<?xml version="1.0" encoding="utf-8"?>
<!-- Generator: Adobe Illustrator 23.0.1, SVG Export Plug-In . SVG Version: 6.00 Build 0)  -->
<svg version="1.1" id="Layer_1" xmlns="http://www.w3.org/2000/svg" xmlns:xlink="http://www.w3.org/1999/xlink" x="0px" y="0px"
	 viewBox="0 0 401.2 421.2" style="enable-background:new 0 0 401.2 421.2;" xml:space="preserve">
<style type="text/css">
	.st0{fill:none;stroke:#EE255C;stroke-width:4;stroke-linejoin:bevel;stroke-miterlimit:10;}
	.st1{display:none;}
	.st2{display:inline;fill:none;stroke:#EE255C;stroke-width:4;stroke-linejoin:bevel;stroke-miterlimit:10;}
	.st3{display:inline;fill:none;stroke:#EE255C;stroke-width:4;stroke-linejoin:bevel;}
</style>
<g id="_x35_">
	<line class="st0" x1="209.4" y1="139.2" x2="202.9" y2="154.8"/>
	<polyline class="st0" points="186.9,154.8 193.5,139.2 240.8,139.2 247.3,154.8 	"/>
	<polyline class="st0" points="214.1,89.8 205.6,110.2 228.6,110.2 225.1,101.7 221.5,110.2 	"/>
</g>
<g id="_x34__1_" class="st1">
	<line class="st2" x1="211.1" y1="135.7" x2="203.1" y2="154.8"/>
	<polyline class="st2" points="187.2,154.8 195.2,135.7 239.5,135.7 247.5,154.8 	"/>
	<polyline class="st2" points="220.3,113.7 225.3,101.8 230.4,113.7 204.4,113.7 214.4,89.8 	"/>
</g>
<g id="_x33_" class="st1">
	<polyline class="st2" points="247.5,154.9 240,136.9 194.7,136.9 187.1,154.9 	"/>
	<line class="st2" x1="210.6" y1="137" x2="203.1" y2="154.9"/>
	<line class="st2" x1="203.1" y1="154.9" x2="188.1" y2="154.9"/>
	<line class="st2" x1="241.9" y1="154.9" x2="251.9" y2="154.9"/>
	<polyline class="st2" points="214.3,89.9 204.8,112.8 229.9,112.8 225.3,101.9 220.8,112.8 	"/>
	<line class="st2" x1="203.1" y1="154.9" x2="208.1" y2="154.9"/>
	<line class="st2" x1="209.3" y1="89.9" x2="225.3" y2="89.9"/>
	<line class="st2" x1="182.1" y1="154.9" x2="187.1" y2="154.9"/>
</g>
<g id="_x32_" class="st1">
	<polyline class="st3" points="187.5,155 194.1,139.4 241.4,139.4 247.9,155 	"/>
	<line class="st3" x1="210" y1="139.4" x2="203.5" y2="155"/>
	<line class="st3" x1="242.2" y1="155" x2="252.2" y2="155"/>
	<polyline class="st3" points="214.7,90 206.2,110.4 229.2,110.4 225.7,101.9 222.2,110.4 	"/>
	<line class="st3" x1="203.5" y1="155" x2="208.5" y2="155"/>
	<line class="st3" x1="209.7" y1="90" x2="225.7" y2="90"/>
</g>
<g id="_x31_" class="st1">
	<polyline class="st2" points="187.5,155 197.2,131.8 238.2,131.8 247.8,155 	"/>
	<line class="st2" x1="213.1" y1="131.8" x2="203.5" y2="155"/>
	<line class="st2" x1="242.2" y1="155" x2="252.2" y2="155"/>
	<polyline class="st2" points="214.7,90 203,117.8 217.6,117.8 232.4,117.8 225.6,101.9 219,117.8 	"/>
	<line class="st2" x1="203.5" y1="155" x2="208.5" y2="155"/>
	<line class="st2" x1="182.5" y1="155" x2="187.5" y2="155"/>
	<line class="st2" x1="209.7" y1="90" x2="225.7" y2="90"/>
</g>
<g id="_x30_" class="st1">
	<polyline class="st2" points="187.5,155 200,125 235.2,124.7 247.8,155 	"/>
	<line class="st2" x1="216.1" y1="124.7" x2="203.5" y2="155"/>
	<line class="st2" x1="203.5" y1="155" x2="187.5" y2="155"/>
	<line class="st2" x1="242.2" y1="155" x2="252.2" y2="155"/>
	<polyline class="st2" points="214.7,90 200,125 235.2,124.7 225.6,101.9 216.1,124.7 	"/>
	<line class="st2" x1="203.5" y1="155" x2="208.5" y2="155"/>
	<line class="st2" x1="209.7" y1="90" x2="225.7" y2="90"/>
	<line class="st2" x1="182.5" y1="155" x2="187.5" y2="155"/>
</g>
</svg>
