<?xml version="1.0" encoding="utf-8"?>
<!-- Generator: Adobe Illustrator 23.0.1, SVG Export Plug-In . SVG Version: 6.00 Build 0)  -->
<svg version="1.1" id="Layer_1" xmlns="http://www.w3.org/2000/svg" xmlns:xlink="http://www.w3.org/1999/xlink" x="0px" y="0px"
	 viewBox="0 0 401.2 421.2" style="enable-background:new 0 0 401.2 421.2;" xml:space="preserve">
<style type="text/css">
	.st0{display:none;fill:none;stroke:#EE255C;stroke-width:4;stroke-linejoin:bevel;stroke-miterlimit:10;}
	.st1{fill:none;stroke:#EE255C;stroke-width:4;stroke-linejoin:bevel;stroke-miterlimit:10;}
	.st2{display:none;}
	.st3{display:inline;fill:none;stroke:#EE255C;stroke-width:4;stroke-linejoin:bevel;stroke-miterlimit:10;}
	.st4{display:inline;fill:none;stroke:#EE255C;stroke-width:4;stroke-linejoin:bevel;}
</style>
<g id="_x35_">
	<polyline class="st0" points="99.2,6.8 99.2,1.8 64.3,1.8 64.3,22.3 	"/>
	<line class="st0" x1="64.3" y1="66.8" x2="64.3" y2="51.3"/>
	<polyline class="st0" points="50.7,66.8 50.7,51.3 81.3,51.3 81.3,22.3 50.7,22.3 50.7,1.8 45.7,1.8 	"/>
	<polyline class="st1" points="99.2,61.8 99.2,66.8 45.7,66.8 	"/>
</g>
<g id="_x34__1_" class="st2">
	<polyline class="st3" points="64.3,25.7 64.3,1.8 99.2,1.8 99.2,6.8 	"/>
	<line class="st3" x1="64.3" y1="47.7" x2="64.3" y2="66.8"/>
	<polyline class="st3" points="45.7,1.8 50.7,1.8 50.7,25.7 81.3,25.7 81.3,47.7 50.7,47.7 50.7,66.8 	"/>
	<polyline class="st3" points="45.7,66.8 99.2,66.8 99.2,61.8 	"/>
</g>
<g id="_x33_" class="st2">
	<polyline class="st3" points="64.6,24.9 64.6,2 99.5,2 99.5,7 	"/>
	<line class="st4" x1="64.6" y1="67" x2="64.6" y2="49"/>
	<polyline class="st3" points="46,2 51,2 51,24.9 81.6,24.9 81.6,49 51,49 51,67 	"/>
	<polyline class="st3" points="46,67.1 99.5,67.1 99.5,62.1 	"/>
</g>
<g id="_x32_" class="st2">
	<polyline class="st4" points="64.6,22.4 64.6,2 99.6,2 99.6,7 	"/>
	<line class="st4" x1="64.6" y1="67" x2="64.6" y2="51.4"/>
	<polyline class="st4" points="46,2 51,2 51,22.4 81.6,22.4 81.6,51.4 51,51.4 51,67 	"/>
	<polyline class="st4" points="46,67 99.6,67 99.6,62 	"/>
</g>
<g id="_x31_" class="st2">
	<line class="st3" x1="64.7" y1="67" x2="64.7" y2="44"/>
	<polyline class="st3" points="64.7,30 64.7,2 99.6,2 99.6,7 	"/>
	<polyline class="st3" points="46,2 51,2 51,29.9 81.6,29.9 81.6,43.9 51,43.9 51,67 	"/>
	<polyline class="st3" points="46,67 99.6,67 99.6,62 	"/>
</g>
<g id="_x30_" class="st2">
	<line class="st3" x1="64.6" y1="67" x2="64.6" y2="37"/>
	<polyline class="st3" points="64.6,37 64.6,2 99.5,2 99.5,7 	"/>
	<polyline class="st3" points="46,2 51,2 51,37 81.6,37 81.6,36.9 51,36.9 51,67 	"/>
	<polyline class="st3" points="46,67 99.5,67 99.5,62 	"/>
</g>
</svg>
