<?xml version="1.0" encoding="utf-8"?>
<!-- Generator: Adobe Illustrator 23.0.0, SVG Export Plug-In . SVG Version: 6.00 Build 0)  -->
<svg version="1.1" xmlns="http://www.w3.org/2000/svg" xmlns:xlink="http://www.w3.org/1999/xlink" x="0px" y="0px"
	 viewBox="0 0 401.2 421.2" style="enable-background:new 0 0 401.2 421.2;" xml:space="preserve">
<style type="text/css">
	.st0{fill:none;stroke:#EE255C;stroke-width:4;stroke-linejoin:bevel;}
	.st1{fill:none;stroke:#EE255C;stroke-width:4;stroke-linejoin:bevel;stroke-miterlimit:10;}
	.st2{fill:#FFFFFF;stroke:#EE255C;stroke-width:4;stroke-linejoin:bevel;stroke-miterlimit:10;}
</style>
<g id="Layer_6">
	<line class="st0" x1="311.1" y1="90" x2="321.1" y2="90"/>
	<line class="st0" x1="316.9" y1="90.1" x2="299.4" y2="131.9"/>
	<polyline class="st0" points="282.1,90.1 282.1,90.1 299.5,131.9 299.5,155 304.6,155 	"/>
	<polyline class="st0" points="265.4,155 270.4,155 270.4,131.9 261.2,109.8 269.4,90.1 	"/>
	<line class="st0" x1="250.1" y1="90" x2="282.1" y2="90.1"/>
</g>
<g id="Layer_5">
	<line class="st1" x1="298.5" y1="90" x2="308.5" y2="90"/>
	<line class="st1" x1="304.3" y1="90" x2="286.9" y2="131.9"/>
	<polyline class="st2" points="269.4,90 269.4,90 286.9,131.9 286.9,155 291.9,155 	"/>
	<polyline class="st2" points="265.4,155 270.4,155 270.4,131.9 261.1,109.7 269.4,90 	"/>
	<line class="st1" x1="250.2" y1="90" x2="276.5" y2="90"/>
</g>
<g id="Layer_4">
	<line class="st1" x1="298.5" y1="90" x2="308.5" y2="90"/>
	<line class="st1" x1="304.3" y1="90" x2="286.8" y2="131.9"/>
	<polyline class="st1" points="269.4,90 269.4,90 286.8,131.9 286.8,155 291.9,155 	"/>
	<polyline class="st1" points="265.3,155 270.4,155 270.4,131.9 252.9,90 269.4,90 	"/>
	<line class="st1" x1="248.8" y1="90" x2="275.3" y2="90"/>
</g>
</svg>
