<?xml version="1.0" encoding="utf-8"?>
<!-- Generator: Adobe Illustrator 21.1.0, SVG Export Plug-In . SVG Version: 6.00 Build 0)  -->
<svg version="1.1" id="Layer_1" xmlns="http://www.w3.org/2000/svg" xmlns:xlink="http://www.w3.org/1999/xlink" x="0px" y="0px"
	 viewBox="0 0 401.2 421.2" style="enable-background:new 0 0 401.2 421.2;" xml:space="preserve">
<style type="text/css">
	.st0{fill:none;stroke:#EE255C;stroke-width:4;stroke-linejoin:bevel;}
	.st1{display:none;}
	.st2{display:inline;fill:none;stroke:#EE255C;stroke-width:4;stroke-linejoin:bevel;}
	.st3{display:inline;fill:none;stroke:#EE255C;stroke-width:4;stroke-linejoin:bevel;stroke-miterlimit:10;}
	.st4{fill:none;stroke:#EE255C;stroke-width:4;stroke-linejoin:bevel;stroke-miterlimit:10;}
</style>
<g id="_x33_">
	<polyline class="st0" points="340.3,67.1 393.8,67.1 393.8,62.1 	"/>
	<polyline class="st0" points="374.3,67 374.3,2 380,2 	"/>
	<polyline class="st0" points="340.4,2 345.4,2 345.4,33.5 359.4,67 	"/>
</g>
<g id="_x32_" class="st1">
	<polyline class="st2" points="340.3,67.1 393.8,67.1 393.8,62.1 	"/>
	<polyline class="st2" points="374.3,67 374.3,2 380,2 	"/>
	<polyline class="st2" points="340.4,2 345.4,2 345.4,33.5 359.4,67 	"/>
</g>
<g id="_x31_" class="st1">
	<polyline class="st3" points="345.3,67 398.8,67 398.8,62 	"/>
	<polyline class="st3" points="364.1,67 364.1,2 369.9,2 	"/>
	<polyline class="st3" points="345.3,2 350.3,2 350.3,33.5 364.3,67 	"/>
</g>
<g id="_x30_" class="st1">
	<polyline class="st4" points="345.3,67 398.8,67 398.8,62 	"/>
	<polyline class="st4" points="364.1,67 364.1,2 369.9,2 	"/>
	<polyline class="st4" points="345.3,2 350.1,2 350.1,67.1 364.1,67 	"/>
</g>
</svg>
