<?xml version="1.0" encoding="utf-8"?>
<!-- Generator: Adobe Illustrator 21.1.0, SVG Export Plug-In . SVG Version: 6.00 Build 0)  -->
<svg version="1.1" xmlns="http://www.w3.org/2000/svg" xmlns:xlink="http://www.w3.org/1999/xlink" x="0px" y="0px"
	 viewBox="0 0 401.2 421.2" style="enable-background:new 0 0 401.2 421.2;" xml:space="preserve">
<style type="text/css">
	.st0{display:none;fill:none;stroke:#EE255C;stroke-width:4;stroke-linejoin:bevel;stroke-miterlimit:10;}
	.st1{fill:none;stroke:#EE255C;stroke-width:4;stroke-linejoin:bevel;stroke-miterlimit:10;}
	.st2{display:none;}
	.st3{display:inline;fill:none;stroke:#EE255C;stroke-width:4;stroke-linejoin:bevel;}
	.st4{display:inline;fill:none;stroke:#EE255C;stroke-width:4;stroke-linejoin:bevel;stroke-miterlimit:10;}
	.st5{display:inline;}
	.st6{fill:none;stroke:#EE255C;stroke-width:4;stroke-linejoin:bevel;}
</style>
<g id="Layer_2_1_">
	<polyline class="st0" points="325.5,330.9 318,312.9 272.7,312.9 265.1,330.9 	"/>
	<line class="st1" x1="288.6" y1="313" x2="281.1" y2="330.9"/>
	<line class="st0" x1="281.1" y1="330.9" x2="266.1" y2="330.9"/>
	<line class="st0" x1="319.8" y1="330.9" x2="329.8" y2="330.9"/>
	<polyline class="st0" points="292.3,265.9 282.8,288.8 307.9,288.8 303.3,277.9 298.7,288.8 	"/>
	<line class="st0" x1="281.1" y1="330.9" x2="286.1" y2="330.9"/>
	<line class="st0" x1="287.3" y1="265.9" x2="303.3" y2="265.9"/>
	<line class="st0" x1="260.1" y1="330.9" x2="265.1" y2="330.9"/>
</g>
<g id="Layer_1">
	<g id="Layer_2" class="st2">
		<polyline class="st3" points="264.9,331 271.5,315.4 318.8,315.4 325.3,331 		"/>
		<line class="st3" x1="287.4" y1="315.4" x2="280.9" y2="331"/>
		<polyline class="st3" points="292.1,266 283.6,286.4 306.6,286.4 303.1,278 299.6,286.4 		"/>
	</g>
	<g id="Layer_4_1_" class="st2">
		<polyline class="st4" points="265.1,331 274.9,307.8 315.9,307.8 325.5,331 		"/>
		<line class="st4" x1="290.8" y1="307.8" x2="281.1" y2="331"/>
		<polyline class="st4" points="292.4,266 280.6,293.8 295.2,293.8 310,293.8 303.2,277.9 296.6,293.8 		"/>
	</g>
	<g id="Layer_3" class="st2">
		<polyline class="st4" points="265.1,331 277.6,301 312.9,300.7 325.5,331 		"/>
		<polyline class="st4" points="292.4,266 277.6,301 312.9,300.7 303.2,277.9 293.8,300.7 		"/>
		<line class="st4" x1="293.8" y1="300.7" x2="281.1" y2="331"/>
		<line class="st4" x1="287.4" y1="266" x2="303.4" y2="266"/>
		<line class="st4" x1="319.9" y1="331" x2="329.9" y2="331"/>
		<g id="Layer_6" class="st5">
			<line class="st6" x1="260.1" y1="331" x2="286.1" y2="331"/>
		</g>
	</g>
</g>
</svg>
