<?xml version="1.0" encoding="utf-8"?>
<!-- Generator: Adobe Illustrator 23.0.1, SVG Export Plug-In . SVG Version: 6.00 Build 0)  -->
<svg version="1.1" id="Layer_1" xmlns="http://www.w3.org/2000/svg" xmlns:xlink="http://www.w3.org/1999/xlink" x="0px" y="0px"
	 viewBox="0 0 401.2 421.2" style="enable-background:new 0 0 401.2 421.2;" xml:space="preserve">
<style type="text/css">
	.st0{fill:none;stroke:#EE255C;stroke-width:4;stroke-linejoin:bevel;stroke-miterlimit:10;}
	.st1{display:none;}
	.st2{display:inline;fill:none;stroke:#EE255C;stroke-width:4;stroke-linejoin:bevel;stroke-miterlimit:10;}
	.st3{display:inline;fill:none;stroke:#EE255C;stroke-width:4;stroke-linejoin:bevel;}
</style>
<g id="_x38_">
	<polyline class="st0" points="344.7,67.1 398.2,67.1 398.2,62.4 	"/>
	<polyline class="st0" points="363.6,67 363.6,2 369.3,2 	"/>
	<polyline class="st0" points="344.7,2 349.7,2 349.7,45 363.7,67 	"/>
</g>
<g id="_x37_" class="st1">
	<polyline class="st2" points="345.1,66.9 398.6,66.9 398.6,61.9 	"/>
	<polyline class="st2" points="363.9,67 363.9,2 369.6,2 	"/>
	<polyline class="st2" points="345.1,1.8 350.1,1.8 350.1,33.4 364.1,66.8 	"/>
</g>
<g id="_x36_" class="st1">
	<polyline class="st2" points="340,66.9 393.5,66.9 393.5,61.9 	"/>
	<polyline class="st2" points="363.9,67 363.9,2 369.6,2 	"/>
	<polyline class="st2" points="340,1.8 345,1.8 345,33.4 359,66.8 	"/>
</g>
<g id="_x35_" class="st1">
	<polyline class="st2" points="340,66.9 393.5,66.9 393.5,61.9 	"/>
	<polyline class="st2" points="374.3,66.8 374.3,1.8 380,1.8 	"/>
	<polyline class="st2" points="340,1.8 345,1.8 345,33.4 359,66.8 	"/>
</g>
<g id="_x34__1_" class="st1">
	<polyline class="st2" points="340,66.9 393.5,66.9 393.5,61.9 	"/>
	<polyline class="st2" points="367,66.8 367,1.8 372.7,1.8 	"/>
	<polyline class="st2" points="340,1.8 345,1.8 345,33.4 359,66.8 	"/>
</g>
<g id="_x33_" class="st1">
	<polyline class="st3" points="340.3,67.1 393.8,67.1 393.8,62.1 	"/>
	<polyline class="st3" points="374.3,67 374.3,2 380,2 	"/>
	<polyline class="st3" points="340.4,2 345.4,2 345.4,33.5 359.4,67 	"/>
</g>
<g id="_x32_" class="st1">
	<polyline class="st3" points="340.3,67.1 393.8,67.1 393.8,62.1 	"/>
	<polyline class="st3" points="374.3,67 374.3,2 380,2 	"/>
	<polyline class="st3" points="340.4,2 345.4,2 345.4,33.5 359.4,67 	"/>
</g>
<g id="_x31_" class="st1">
	<polyline class="st2" points="345.3,67 398.8,67 398.8,62 	"/>
	<polyline class="st2" points="364.1,67 364.1,2 369.9,2 	"/>
	<polyline class="st2" points="345.3,2 350.3,2 350.3,33.5 364.3,67 	"/>
</g>
<g id="_x30_" class="st1">
	<polyline class="st2" points="345.3,67 398.8,67 398.8,62 	"/>
	<polyline class="st2" points="364.1,67 364.1,2 369.9,2 	"/>
	<polyline class="st2" points="345.3,2 350.1,2 350.1,67.1 364.1,67 	"/>
</g>
</svg>
