<?xml version="1.0" encoding="utf-8"?>
<!-- Generator: Adobe Illustrator 23.0.1, SVG Export Plug-In . SVG Version: 6.00 Build 0)  -->
<svg version="1.1" id="Layer_1" xmlns="http://www.w3.org/2000/svg" xmlns:xlink="http://www.w3.org/1999/xlink" x="0px" y="0px"
	 viewBox="0 0 401.2 421.2" style="enable-background:new 0 0 401.2 421.2;" xml:space="preserve">
<style type="text/css">
	.st0{fill:none;stroke:#EE255C;stroke-width:4;stroke-linejoin:bevel;stroke-miterlimit:10;}
	.st1{display:none;}
	.st2{display:inline;fill:none;stroke:#EE255C;stroke-width:4;stroke-linejoin:bevel;stroke-miterlimit:10;}
	.st3{display:inline;fill:none;stroke:#EE255C;stroke-width:4;stroke-linejoin:bevel;}
</style>
<g id="_x36_">
	<path class="st0" d="M118.2,51.1c6.5,11.3,19,17.3,31.2,16.2L119.9,16C113,26.1,111.8,39.7,118.2,51.1z"/>
	<path class="st0" d="M174.2,51.4c6.1-9,6.1-20.1,3-28.2c-7.3-20.8-33.6-25.6-48.4-16"/>
	<polyline class="st0" points="130.2,6.4 165.5,66.9 181.9,67.1 164.4,36.2 	"/>
	<line class="st0" x1="169.7" y1="36.3" x2="159.7" y2="36.3"/>
</g>
<g id="_x35_" class="st1">
	<path class="st2" d="M119.7,57.6c9.5,8.9,23.2,11,34.6,6.4l-43.2-40.5C107.4,35.2,110.2,48.6,119.7,57.6z"/>
	<path class="st2" d="M172,45.4c4.3-10,2.3-20.9-2.3-28.3c-11-19.1-39.1-21.2-55.3-3.7"/>
	<polyline class="st2" points="113.9,11.1 172.9,66.1 192.8,66.1 159.5,35 	"/>
	<line class="st2" x1="164.8" y1="35.1" x2="154.8" y2="35.1"/>
</g>
<g id="_x34_" class="st1">
	<path class="st2" d="M119.8,53.2c7.6,10.6,20.6,15.3,32.7,13L118,18.1C112,28.9,112.2,42.6,119.8,53.2z"/>
	<path class="st2" d="M174.6,50.4c6.2-11.3,5.5-23.2-0.4-32.9c-9.2-15.2-30.4-21-46.5-9.8"/>
	<polyline class="st2" points="164.2,35.9 186.4,66.8 170,66.8 128.8,9.3 	"/>
	<line class="st2" x1="170.1" y1="35.9" x2="160.1" y2="35.9"/>
</g>
<g id="_x33_" class="st1">
	<path class="st2" d="M175.8,49.2c2.2-4.4,3.5-9.4,3.5-14.6c0-18-14.6-32.5-32.5-32.5c-7.6,0-14.7,2.6-20.2,7.1l1.2,1.6"/>
	<path class="st2" d="M114.2,34.5c0-5.3,1.3-10.3,3.5-14.7l37.5,46.1c-2.7,0.7-5.6,1.1-8.5,1.1C128.8,67,114.2,52.5,114.2,34.5z"/>
	<polyline class="st2" points="126.6,9.1 173.8,67.1 190.2,67 165,36.1 	"/>
	<line class="st2" x1="171.6" y1="36.1" x2="161.6" y2="36.1"/>
</g>
<g id="_x32_" class="st1">
	<line class="st3" x1="169.3" y1="36.1" x2="159.3" y2="36.1"/>
	<polyline class="st3" points="116.9,10.7 177.3,67 197.2,67 163.9,36 	"/>
	<path class="st2" d="M119.7,57.9c9.5,9,23.1,11.2,34.5,6.5l-43-40.6C107.3,35.5,110.1,48.9,119.7,57.9z"/>
	<path class="st2" d="M172.8,44.3c3.7-12.8,0.3-25-8.8-33.5C151-1.3,130.6-0.7,118.4,12"/>
</g>
<g id="_x31_" class="st1">
	<path class="st2" d="M116.9,47c5,12.1,16.6,19.6,28.9,20L123,12.5C114.6,21.5,111.8,34.9,116.9,47z"/>
	<path class="st2" d="M171.9,55.1c7.4-9,9.7-21.7,4.9-33.2c-6.9-16.4-25.7-24.2-42.1-17.6"/>
	<polyline class="st2" points="134,2.6 161,67 176.9,67 163.9,36 	"/>
	<line class="st2" x1="168.9" y1="36" x2="158.9" y2="36"/>
</g>
<g id="_x30_" class="st1">
	<path class="st2" d="M114.2,34.5c0,13.1,7.8,24.4,19,29.6V4.9C122,10.1,114.2,21.4,114.2,34.5z"/>
	<path class="st2" d="M164.6,61.6c8.8-5.8,14.6-15.8,14.6-27.1c0-17.8-14.3-32.2-32-32.5"/>
	<polyline class="st2" points="147.2,0 147.2,66.9 163.6,66.9 163.6,36 	"/>
	<line class="st2" x1="168.6" y1="36" x2="158.6" y2="36"/>
</g>
</svg>
