<?xml version="1.0" encoding="utf-8"?>
<!-- Generator: Adobe Illustrator 21.1.0, SVG Export Plug-In . SVG Version: 6.00 Build 0)  -->
<svg version="1.1" id="Layer_1" xmlns="http://www.w3.org/2000/svg" xmlns:xlink="http://www.w3.org/1999/xlink" x="0px" y="0px"
	 viewBox="0 0 401.2 421.2" style="enable-background:new 0 0 401.2 421.2;" xml:space="preserve">
<style type="text/css">
	.st0{fill:none;stroke:#EE255C;stroke-width:4;stroke-linejoin:bevel;stroke-miterlimit:10;}
	.st1{display:none;fill:none;stroke:#EE255C;stroke-width:4;stroke-linejoin:bevel;stroke-miterlimit:10;}
	.st2{display:none;}
	.st3{display:inline;fill:none;stroke:#EE255C;stroke-width:4;stroke-linejoin:bevel;}
	.st4{display:inline;fill:none;stroke:#EE255C;stroke-width:4;stroke-linejoin:bevel;stroke-miterlimit:10;}
</style>
<g id="_x34_">
	<path class="st0" d="M113.9,34.3c0,18,14.6,32.5,32.5,32.5c2,0,4-0.2,6-0.6l-34.3-47.9C115.4,23.1,113.9,28.5,113.9,34.3z"/>
	<path class="st1" d="M174.6,50.4c2.7-4.7,4.3-10.2,4.3-16.1c0-18-14.6-32.5-32.5-32.5c-7,0-13.4,2.2-18.7,5.9l1.1,1.6"/>
	<polyline class="st1" points="164.2,35.9 186.4,66.8 170,66.8 128.8,9.3 	"/>
	<line class="st1" x1="170.1" y1="35.9" x2="160.1" y2="35.9"/>
</g>
<g id="_x33_" class="st2">
	<path class="st0" d="M175.8,49.2c2.2-4.4,3.5-9.4,3.5-14.6c0-18-14.6-32.5-32.5-32.5c-7.6,0-14.7,2.6-20.2,7.1l1.2,1.6"/>
	<path class="st0" d="M114.2,34.5c0-5.3,1.3-10.3,3.5-14.7l37.5,46.1c-2.7,0.7-5.6,1.1-8.5,1.1C128.8,67,114.2,52.5,114.2,34.5z"/>
	<polyline class="st0" points="126.6,9.1 173.8,67.1 190.2,67 165,36.1 	"/>
	<line class="st0" x1="171.6" y1="36.1" x2="161.6" y2="36.1"/>
</g>
<g id="_x32_" class="st2">
	<line class="st3" x1="169.3" y1="36.1" x2="159.3" y2="36.1"/>
	<polyline class="st3" points="116.9,10.7 177.3,67 197.2,67 163.9,36 	"/>
	<path class="st4" d="M119.7,57.9c9.5,9,23.1,11.2,34.5,6.5l-43-40.6C107.3,35.5,110.1,48.9,119.7,57.9z"/>
	<path class="st4" d="M172.8,44.3c3.7-12.8,0.3-25-8.8-33.5C151-1.3,130.6-0.7,118.4,12"/>
</g>
<g id="_x31_" class="st2">
	<path class="st4" d="M116.9,47c5,12.1,16.6,19.6,28.9,20L123,12.5C114.6,21.5,111.8,34.9,116.9,47z"/>
	<path class="st4" d="M171.9,55.1c7.4-9,9.7-21.7,4.9-33.2c-6.9-16.4-25.7-24.2-42.1-17.6"/>
	<polyline class="st4" points="134,2.6 161,67 176.9,67 163.9,36 	"/>
	<line class="st4" x1="168.9" y1="36" x2="158.9" y2="36"/>
</g>
<g id="_x30_" class="st2">
	<path class="st0" d="M114.2,34.5c0,13.1,7.8,24.4,19,29.6V4.9C122,10.1,114.2,21.4,114.2,34.5z"/>
	<path class="st0" d="M164.6,61.6c8.8-5.8,14.6-15.8,14.6-27.1c0-17.8-14.3-32.2-32-32.5"/>
	<polyline class="st0" points="147.2,0 147.2,66.9 163.6,66.9 163.6,36 	"/>
	<line class="st0" x1="168.6" y1="36" x2="158.6" y2="36"/>
</g>
</svg>
