<?xml version="1.0" encoding="utf-8"?>
<!-- Generator: Adobe Illustrator 23.0.0, SVG Export Plug-In . SVG Version: 6.00 Build 0)  -->
<svg version="1.1" xmlns="http://www.w3.org/2000/svg" xmlns:xlink="http://www.w3.org/1999/xlink" x="0px" y="0px"
	 viewBox="0 0 401.2 421.2" style="enable-background:new 0 0 401.2 421.2;" xml:space="preserve">
<style type="text/css">
	.st0{fill:none;stroke:#EE255C;stroke-width:4;stroke-linejoin:bevel;}
	.st1{display:none;}
	.st2{display:inline;fill:none;stroke:#EE255C;stroke-width:4;stroke-linejoin:bevel;}
	.st3{display:inline;fill:none;stroke:#EE255C;stroke-width:4;stroke-linejoin:bevel;stroke-miterlimit:10;}
</style>
<g id="Layer_1">
	<g id="_x33_">
		<path class="st0" d="M168.5,371.3c-8.1,16-1.9,35.6,14.2,43.7c7.3,3.8,15.9,4.6,23.9,2.3L168.5,371.3z"/>
		<path class="st0" d="M218,411.3c14-11.2,16.3-31.7,4.9-45.8c-11.2-14-31.7-16.3-45.8-4.9L218,411.3z"/>
		<line class="st0" x1="177.3" y1="360.7" x2="173.3" y2="363.8"/>
		<line class="st0" x1="218.1" y1="411.3" x2="214" y2="414.4"/>
	</g>
	<g id="_x32__1_" class="st1">
		<path class="st2" d="M166.7,375.6c-5.8,17,3.2,35.5,20.2,41.3c7.8,2.7,16.4,2.3,24-1.1L166.7,375.6z"/>
		<path class="st2" d="M221.4,408.1c12.3-13.1,11.6-33.7-1.6-46c-13.1-12.3-33.7-11.6-46,1.6L221.4,408.1z"/>
		<line class="st2" x1="173.9" y1="363.8" x2="170.4" y2="367.5"/>
		<line class="st2" x1="221.5" y1="408.1" x2="217.9" y2="411.8"/>
	</g>
	<g id="_x31_" class="st1">
		<line class="st3" x1="210.3" y1="416" x2="205.8" y2="417.9"/>
		<line class="st3" x1="185.3" y1="356" x2="180.8" y2="358"/>
		<path class="st2" d="M173.5,363.8c-12.5,12.9-12.1,33.5,0.9,46c6,5.8,13.9,9,22.2,9.1L173.5,363.8z"/>
		<path class="st2" d="M210.6,416c16.6-7,24.3-26,17.4-42.6c-7-16.6-26-24.3-42.6-17.4L210.6,416z"/>
	</g>
	<g id="_x30_" class="st1">
		<path class="st2" d="M184.2,356.4c-16.4,7.3-23.8,26.5-16.5,42.9c3.4,7.6,9.5,13.6,17.1,16.8L184.2,356.4z"/>
		<path class="st2" d="M197.8,418.6c18,0,32.5-14.6,32.5-32.5s-14.6-32.5-32.5-32.5V418.6z"/>
		<line class="st2" x1="197.8" y1="353.6" x2="192.6" y2="353.6"/>
		<line class="st2" x1="197.7" y1="418.6" x2="192.6" y2="418.6"/>
	</g>
</g>
<g id="Layer_2" class="st1">
	<path class="st3" d="M165,382.1c-2.4,17.8,10,34.2,27.8,36.6c4.7,0.6,9.3,0.2,13.6-1l-38.2-45.9C166.6,374.9,165.5,378.4,165,382.1
		"/>
	<path class="st3" d="M201.6,354.3c-9.2-1.3-17.9,1.4-24.7,6.8l41.1,50.4c6-5,10.2-12.2,11.4-20.5"/>
	<path class="st3" d="M229.4,390.9c2.4-17.8-10-34.2-27.8-36.6"/>
	<line class="st3" x1="177" y1="361.1" x2="173" y2="364.3"/>
	<line class="st3" x1="218" y1="411.4" x2="214" y2="414.7"/>
</g>
</svg>
