<?xml version="1.0" encoding="utf-8"?>
<!-- Generator: Adobe Illustrator 23.0.0, SVG Export Plug-In . SVG Version: 6.00 Build 0)  -->
<svg version="1.1" xmlns="http://www.w3.org/2000/svg" xmlns:xlink="http://www.w3.org/1999/xlink" x="0px" y="0px"
	 viewBox="0 0 401.2 421.2" style="enable-background:new 0 0 401.2 421.2;" xml:space="preserve">
<style type="text/css">
	.st0{fill:none;stroke:#EE255C;stroke-width:4;stroke-linejoin:bevel;}
	.st1{fill:none;stroke:#EE255C;stroke-width:4;stroke-linejoin:bevel;stroke-miterlimit:10;}
</style>
<g id="Layer_7">
	<polyline class="st0" points="141.1,198.4 141.1,178 176.1,178 176.1,182.9 	"/>
	<polyline class="st0" points="146.1,243 141.1,243 141.1,227.4 	"/>
	<g id="Layer_6">
		<polyline class="st1" points="176,178.1 127.5,178.1 127.5,198.5 158.1,198.5 158.1,227.3 127.5,227.3 127.5,243.1 122.5,243.1 		
			"/>
	</g>
	<g id="Layer_10_copy_2">
		<line class="st1" x1="127.5" y1="189.1" x2="127.5" y2="195.3"/>
	</g>
	<g id="Layer_8_copy_2">
		<line class="st1" x1="127.5" y1="178.1" x2="122.5" y2="178.1"/>
	</g>
</g>
<g id="Layer_5">
	<polyline class="st1" points="141.1,198.6 141.1,178.1 176,178.1 176,183 	"/>
	<polyline class="st1" points="146,243.1 141.1,243.1 141.1,198.6 	"/>
	<g id="Layer_6_copy_2">
		<polyline class="st1" points="176,178.1 127.5,178.1 127.5,198.5 158.1,198.5 158.1,220.1 127.5,220.1 127.5,243.1 122.5,243.1 		
			"/>
	</g>
	<g id="Layer_10">
		<line class="st1" x1="127.5" y1="198.5" x2="127.5" y2="220.1"/>
	</g>
	<g id="Layer_8_copy">
		<line class="st1" x1="127.5" y1="178.1" x2="122.5" y2="178.1"/>
	</g>
</g>
<g id="Layer_4">
	<polyline class="st1" points="141.1,213.2 141.1,178.1 176,178.1 176,183 	"/>
	<polyline class="st1" points="146,243.1 141.1,243.1 141.1,212.9 	"/>
	<g id="Layer_6_copy">
		<polyline class="st1" points="176,178.1 127.5,178.1 127.5,213 158.1,213 158.1,213.2 127.5,213.2 127.5,243.1 122.5,243.1 		"/>
	</g>
	<g id="Layer_10_copy">
		<line class="st1" x1="127.5" y1="198.5" x2="127.5" y2="220.1"/>
	</g>
	<g id="Layer_8">
		<line class="st1" x1="127.5" y1="178.1" x2="122.5" y2="178.1"/>
	</g>
</g>
</svg>
