<?xml version="1.0" encoding="utf-8"?>
<!-- Generator: Adobe Illustrator 23.0.0, SVG Export Plug-In . SVG Version: 6.00 Build 0)  -->
<svg version="1.1" id="Layer_1" xmlns="http://www.w3.org/2000/svg" xmlns:xlink="http://www.w3.org/1999/xlink" x="0px" y="0px"
	 viewBox="0 0 401.2 421.2" style="enable-background:new 0 0 401.2 421.2;" xml:space="preserve">
<style type="text/css">
	.st0{display:none;fill:none;stroke:#EE255C;stroke-width:4;stroke-linejoin:bevel;stroke-miterlimit:10;}
	.st1{fill:none;stroke:#EE255C;stroke-width:4;stroke-linejoin:bevel;}
	.st2{display:none;fill:none;stroke:#EE255C;stroke-width:4;stroke-linejoin:bevel;}
	.st3{display:none;}
	.st4{display:inline;fill:none;stroke:#EE255C;stroke-width:4;stroke-linejoin:bevel;stroke-miterlimit:10;}
	.st5{fill:none;stroke:#EE255C;stroke-width:4;stroke-linejoin:bevel;stroke-miterlimit:10;}
</style>
<g id="_x34_">
	<path class="st0" d="M264.5,353.9l18.5,25.9l0.3-0.2c2.7-1.3,6.7-6.4,6.4-11.7l0,0c0-6.8-5.3-14-14-14"/>
	<line class="st1" x1="279.8" y1="354.1" x2="243" y2="354.1"/>
	<polyline class="st2" points="294.9,419.3 284.8,395.9 277.8,395.9 248,354.1 248,419.1 	"/>
</g>
<g id="_x33_">
	<path class="st0" d="M267.9,354.1l23.4,21.8l0.3-0.5c1.4-2.1,2.1-4.6,2.1-7.2l0,0c0-6.8-5.2-14-13.9-14"/>
	<line class="st2" x1="279.8" y1="354.1" x2="243" y2="354.1"/>
	<polyline class="st2" points="294.9,419.3 287.9,403.5 262,371.6 248,354.1 248,419.1 	"/>
</g>
<g id="_x32__1_">
	<path class="st0" d="M267.9,354.1l23.4,21.8l0.3-0.5c1.4-2.1,2.1-4.6,2.1-7.2l0,0c0-6.8-5.2-14-13.9-14"/>
	<line class="st2" x1="279.8" y1="354.1" x2="243" y2="354.1"/>
	<polyline class="st2" points="294.9,419.3 280.2,384.1 264.4,369.3 248,354.1 248,419.1 	"/>
</g>
<g id="_x31_">
	<path class="st0" d="M263.9,354.1l11.7,28h1.3c5.3,0,13-5.2,13-14l0,0c0-6.8-5.2-14-14-14"/>
	<line class="st0" x1="275.9" y1="354.1" x2="242.9" y2="354.1"/>
	<polyline class="st0" points="294.9,419.3 285.1,396.1 265.5,396.1 247.9,354.1 247.9,419.3 	"/>
</g>
<g id="_x30_" class="st3">
	<line class="st4" x1="252.9" y1="419.2" x2="242.9" y2="419.2"/>
	<line class="st5" x1="299.8" y1="419.2" x2="289.8" y2="419.2"/>
	<polyline class="st5" points="247.9,419.1 247.9,396.1 247.9,354.1 	"/>
	<line class="st5" x1="272.4" y1="354.1" x2="242.9" y2="354.1"/>
	<path class="st5" d="M247.9,354.1v35h24.5c9.7,0,17.5-7.9,17.5-17.5l0,0c0-9.7-7.9-17.5-17.5-17.5"/>
	<polyline class="st5" points="294.8,419.2 272.4,389.1 247.9,389.1 247.9,354.1 247.9,419.1 	"/>
</g>
</svg>
