<?xml version="1.0" encoding="utf-8"?>
<!-- Generator: Adobe Illustrator 23.0.0, SVG Export Plug-In . SVG Version: 6.00 Build 0)  -->
<svg version="1.1" id="Layer_1" xmlns="http://www.w3.org/2000/svg" xmlns:xlink="http://www.w3.org/1999/xlink" x="0px" y="0px"
	 viewBox="0 0 401.2 421.2" style="enable-background:new 0 0 401.2 421.2;" xml:space="preserve">
<style type="text/css">
	.st0{display:none;fill:none;stroke:#EE255C;stroke-width:4;stroke-linejoin:bevel;}
	.st1{display:none;fill:none;stroke:#EE255C;stroke-width:4;stroke-linejoin:bevel;stroke-miterlimit:10;}
	.st2{fill:none;stroke:#EE255C;stroke-width:4;stroke-linejoin:bevel;stroke-miterlimit:10;}
	.st3{display:none;}
	.st4{display:inline;fill:none;stroke:#EE255C;stroke-width:4;stroke-linejoin:bevel;stroke-miterlimit:10;}
</style>
<g id="_x32_">
	<line class="st0" x1="145.4" y1="155" x2="135.4" y2="155"/>
	<path class="st1" d="M135.4,90c0,0,14.9,0,32.6,0c18.4,0,17.8,9.6,18.1,14s-0.9,5.1-2.3,7.8l-3.4-3.2L160.8,90"/>
	<line class="st1" x1="142.1" y1="90" x2="135.4" y2="90"/>
	<polyline class="st1" points="140.4,155 140.4,90 170.5,118 140.4,155 	"/>
	<polyline class="st2" points="140.4,155 140.4,90 170.5,118 140.4,155 	"/>
</g>
<g id="_x31_" class="st3">
	<line class="st2" x1="145.4" y1="155" x2="135.4" y2="155"/>
	<path class="st2" d="M135.4,90c0,0,14.9,0,32.6,0c18.4,0,17.8,9.6,18.1,14s-3.5,12.7-11,13.7l-3,0.3l-16.2-28"/>
	<line class="st2" x1="142.1" y1="90" x2="135.4" y2="90"/>
	<polyline class="st4" points="140.4,155 140.4,90 155.9,118 140.4,155 	"/>
</g>
<g id="_x30_" class="st3">
	<line class="st4" x1="145.4" y1="155" x2="135.4" y2="155"/>
	<path class="st4" d="M135.4,90c0,0,10.5,0,28.2,0c9.3-0.1,18.8,6,18.8,17.5c0,11.9-10.4,18-17.5,17.5h-24.5V90"/>
	<line class="st4" x1="142.1" y1="90" x2="135.4" y2="90"/>
	<polyline class="st4" points="140.4,155 140.4,90 140.9,117.9 140.4,155 	"/>
</g>
<g id="Layer_5">
</g>
<g id="Layer_4">
</g>
</svg>
