<?xml version="1.0" encoding="utf-8"?>
<!-- Generator: Adobe Illustrator 23.0.0, SVG Export Plug-In . SVG Version: 6.00 Build 0)  -->
<svg version="1.1" id="Layer_1" xmlns="http://www.w3.org/2000/svg" xmlns:xlink="http://www.w3.org/1999/xlink" x="0px" y="0px"
	 viewBox="0 0 401.2 421.2" style="enable-background:new 0 0 401.2 421.2;" xml:space="preserve">
<style type="text/css">
	.st0{display:none;fill:none;stroke:#EE255C;stroke-width:4;stroke-linejoin:bevel;stroke-miterlimit:10;}
	.st1{fill:none;stroke:#EE255C;stroke-width:4;stroke-linejoin:bevel;stroke-miterlimit:10;}
	.st2{display:none;}
	.st3{display:inline;fill:none;stroke:#EE255C;stroke-width:4;stroke-linejoin:bevel;}
	.st4{display:inline;fill:none;stroke:#EE255C;stroke-width:4;stroke-linejoin:bevel;stroke-miterlimit:10;}
</style>
<g id="_x33_">
	<line class="st0" x1="172.1" y1="90.1" x2="135.4" y2="90.1"/>
	<line class="st0" x1="145.4" y1="155.1" x2="135.4" y2="155.1"/>
	<path class="st0" d="M135.4,90c0,0,19,0.1,36.7,0.1c6.5,0,14,5.1,14,14c0,2.6-1.2,8.7-6.4,11.8l-0.6,0.3l-21.2-26.1"/>
	<path class="st1" d="M135.4,90c0,0,19,0,36.7,0c8.5,0,14.2,7.7,14,13.1c-0.2,7.3-3,10.2-5.2,12l-1.7,1.1L157.8,90"/>
	<polyline class="st0" points="140.4,155 140.4,90 163.2,117.9 140.4,155 	"/>
</g>
<g id="_x32_" class="st2">
	<line class="st3" x1="145.4" y1="155" x2="135.4" y2="155"/>
	<path class="st4" d="M135.4,90c0,0,14.9,0,32.6,0c18.4,0,17.8,9.6,18.1,14s-0.9,5.1-2.3,7.8l-3.4-3.2L160.8,90"/>
	<line class="st4" x1="142.1" y1="90" x2="135.4" y2="90"/>
	<polyline class="st4" points="140.4,155 140.4,90 170.5,118 140.4,155 	"/>
</g>
<g id="_x31_" class="st2">
	<line class="st4" x1="145.4" y1="155" x2="135.4" y2="155"/>
	<path class="st4" d="M135.4,90c0,0,14.9,0,32.6,0c18.4,0,17.8,9.6,18.1,14s-3.5,12.7-11,13.7l-3,0.3l-16.2-28"/>
	<line class="st4" x1="142.1" y1="90" x2="135.4" y2="90"/>
	<polyline class="st4" points="140.4,155 140.4,90 155.9,118 140.4,155 	"/>
</g>
<g id="_x30_" class="st2">
	<line class="st1" x1="145.4" y1="155" x2="135.4" y2="155"/>
	<path class="st4" d="M135.4,90c0,0,10.5,0,28.2,0c9.3-0.1,18.8,6,18.8,17.5c0,11.9-10.4,18-17.5,17.5h-24.5V90"/>
	<line class="st1" x1="142.1" y1="90" x2="135.4" y2="90"/>
	<polyline class="st4" points="140.4,155 140.4,90 140.9,117.9 140.4,155 	"/>
</g>
</svg>
