<?xml version="1.0" encoding="utf-8"?>
<!-- Generator: Adobe Illustrator 23.0.0, SVG Export Plug-In . SVG Version: 6.00 Build 0)  -->
<svg version="1.1" xmlns="http://www.w3.org/2000/svg" xmlns:xlink="http://www.w3.org/1999/xlink" x="0px" y="0px"
	 viewBox="0 0 401.2 421.2" style="enable-background:new 0 0 401.2 421.2;" xml:space="preserve">
<style type="text/css">
	.st0{fill:none;stroke:#EE255C;stroke-width:4;stroke-linejoin:bevel;stroke-miterlimit:10;}
</style>
<g id="Layer_2">
	<polyline class="st0" points="199.7,308.7 199.7,266 194.7,266 	"/>
	<polyline class="st0" points="249.3,266 244.3,266 244.3,308.7 	"/>
	<path class="st0" d="M249.3,266H230v63.5l0,0c8.4-3.2,14.3-11.3,14.3-20.8"/>
	<path class="st0" d="M199.7,308.7c0,9.5,5.9,17.6,14.3,20.8l0,0V266h5"/>
</g>
<g id="Layer_5">
	<polyline class="st0" points="251.4,289.7 251.5,304.1 251.5,311 	"/>
	<path class="st0" d="M251.4,291.7h-2.6l-34.9,32.6l0,0c11.2,11.4,35.2,6,37.6-13.6"/>
	<path class="st0" d="M206.9,308c0,1.2,0.2,2.6,0.3,3.9l44.2-42.6v-3.9h5.1"/>
	<polyline class="st0" points="206.9,308 206.9,265.3 201.9,265.3 	"/>
</g>
<g id="Layer_4">
	<polyline class="st0" points="249.5,265.3 244.5,265.3 244.5,308 	"/>
	<path class="st0" d="M249.4,265.3h-5l-26.9,64.5l0,0c10.1,2.2,25.7-3.6,26.9-21.8"/>
	<path class="st0" d="M199.8,308c0.1,7.1,2.5,10.5,4.9,13.9l21.7-52.1l2-4.5h-5"/>
	<polyline class="st0" points="199.9,308 199.9,265.3 194.9,265.3 	"/>
</g>
<g id="Layer_3">
	<polyline class="st0" points="249.4,265.3 244.4,265.3 244.4,308 	"/>
	<path class="st0" d="M249.4,265.3h-19.3v63.5l0,0c8.4-3.2,14.3-11.3,14.3-20.8"/>
	<path class="st0" d="M199.8,308c0,9.5,6,16.7,14.4,19.9l-0.1-58.1v-4.5h5"/>
	<polyline class="st0" points="199.8,308 199.8,265.3 194.8,265.3 	"/>
</g>
</svg>
