<?xml version="1.0" encoding="utf-8"?>
<!-- Generator: Adobe Illustrator 23.0.1, SVG Export Plug-In . SVG Version: 6.00 Build 0)  -->
<svg version="1.1" xmlns="http://www.w3.org/2000/svg" xmlns:xlink="http://www.w3.org/1999/xlink" x="0px" y="0px"
	 viewBox="0 0 401.2 421.2" style="enable-background:new 0 0 401.2 421.2;" xml:space="preserve">
<style type="text/css">
	.st0{fill:none;stroke:#EE255C;stroke-width:4;stroke-linejoin:bevel;stroke-miterlimit:10;}
	.st1{fill:none;stroke:#EE255C;stroke-width:4;stroke-linejoin:bevel;}
	.st2{display:none;}
	.st3{display:inline;fill:none;stroke:#EE255C;stroke-width:4;stroke-linejoin:bevel;stroke-miterlimit:10;}
	.st4{display:inline;fill:none;stroke:#EE255C;stroke-width:4;stroke-linejoin:bevel;}
</style>
<g id="Layer_1">
	<g id="_x36_">
		<path class="st0" d="M263.8,353.6l16,27.4l1.6-0.5c6.9-3.1,8.5-9.1,8.6-12.6l0,0c0-6.8-5.3-14.3-14-14.3"/>
		<line class="st1" x1="276" y1="353.4" x2="242.9" y2="353.4"/>
		<polyline class="st1" points="294.8,418.7 285.2,395.8 272.3,395.4 247.9,353.4 247.9,418.4 		"/>
	</g>
	<g id="_x35_" class="st2">
		<path class="st3" d="M267.8,353.4l23.4,21.8l0.3-0.5c1-1.6,2-3.8,2.1-7.3l0,0c0-6.8-5.3-14-14-14"/>
		<line class="st4" x1="279.6" y1="353.4" x2="242.9" y2="353.4"/>
		<polyline class="st4" points="294.8,418.7 285.2,395.8 280,383.4 247.9,353.4 247.9,418.4 		"/>
	</g>
	<g id="_x34_" class="st2">
		<path class="st3" d="M264.5,353.9l18.5,25.9l0.3-0.2c2.7-1.3,6.7-6.4,6.4-11.7l0,0c0-6.8-5.3-14-14-14"/>
		<line class="st4" x1="279.8" y1="354.1" x2="243" y2="354.1"/>
		<polyline class="st4" points="294.9,419.3 284.8,395.9 277.8,395.9 248,354.1 248,419.1 		"/>
	</g>
	<g id="_x33_" class="st2">
		<path class="st3" d="M267.9,354.1l23.4,21.8l0.3-0.5c1.4-2.1,2.1-4.6,2.1-7.2l0,0c0-6.8-5.2-14-13.9-14"/>
		<line class="st4" x1="279.8" y1="354.1" x2="243" y2="354.1"/>
		<polyline class="st4" points="294.9,419.3 287.9,403.5 262,371.6 248,354.1 248,419.1 		"/>
	</g>
	<g id="_x32__1_" class="st2">
		<path class="st3" d="M267.9,354.1l23.4,21.8l0.3-0.5c1.4-2.1,2.1-4.6,2.1-7.2l0,0c0-6.8-5.2-14-13.9-14"/>
		<line class="st4" x1="279.8" y1="354.1" x2="243" y2="354.1"/>
		<polyline class="st4" points="294.9,419.3 280.2,384.1 264.4,369.3 248,354.1 248,419.1 		"/>
	</g>
	<g id="_x31_" class="st2">
		<path class="st3" d="M263.9,354.1l11.7,28h1.3c5.3,0,13-5.2,13-14l0,0c0-6.8-5.2-14-14-14"/>
		<line class="st3" x1="275.9" y1="354.1" x2="242.9" y2="354.1"/>
		<polyline class="st3" points="294.9,419.3 285.1,396.1 265.5,396.1 247.9,354.1 247.9,419.3 		"/>
	</g>
	<g id="_x30_" class="st2">
		<line class="st3" x1="252.9" y1="419.2" x2="242.9" y2="419.2"/>
		<line class="st3" x1="299.8" y1="419.2" x2="289.8" y2="419.2"/>
		<polyline class="st3" points="247.9,419.1 247.9,396.1 247.9,354.1 		"/>
		<line class="st3" x1="272.4" y1="354.1" x2="242.9" y2="354.1"/>
		<path class="st3" d="M247.9,354.1v35h24.5c9.7,0,17.5-7.9,17.5-17.5l0,0c0-9.7-7.9-17.5-17.5-17.5"/>
		<polyline class="st3" points="294.8,419.2 272.4,389.1 247.9,389.1 247.9,354.1 247.9,419.1 		"/>
	</g>
</g>
<g id="Layer_2" class="st2">
	<polyline class="st3" points="248,353.4 272.3,395.4 285.1,395.4 294.8,418.7 	"/>
	<line class="st3" x1="248" y1="418.7" x2="248" y2="353.4"/>
	<line class="st3" x1="276" y1="353.4" x2="243" y2="353.4"/>
	<line class="st3" x1="252.9" y1="418.7" x2="242.9" y2="418.7"/>
	<line class="st3" x1="299.8" y1="418.7" x2="289.8" y2="418.7"/>
	<path class="st3" d="M276,353.4c7.7,0,14,6.3,14,14v0c0,6.4-4.3,11.8-10.2,13.5l-16-27.4"/>
</g>
</svg>
