<?xml version="1.0" encoding="utf-8"?>
<!-- Generator: Adobe Illustrator 23.0.0, SVG Export Plug-In . SVG Version: 6.00 Build 0)  -->
<svg version="1.1" xmlns="http://www.w3.org/2000/svg" xmlns:xlink="http://www.w3.org/1999/xlink" x="0px" y="0px"
	 viewBox="0 0 401.2 421.2" style="enable-background:new 0 0 401.2 421.2;" xml:space="preserve">
<style type="text/css">
	.st0{display:none;}
	.st1{fill:none;stroke:#EE255C;stroke-width:4;stroke-linejoin:bevel;}
	.st2{fill:none;stroke:#EE255C;stroke-width:4;stroke-linejoin:bevel;stroke-miterlimit:10;}
	.st3{display:inline;fill:none;stroke:#EE255C;stroke-width:4;stroke-linejoin:bevel;}
	.st4{display:inline;fill:none;stroke:#EE255C;stroke-width:4;stroke-linejoin:bevel;stroke-miterlimit:10;}
	.st5{display:none;fill:none;stroke:#EE255C;stroke-width:4;stroke-linejoin:bevel;stroke-miterlimit:10;}
</style>
<g id="Layer_1">
	<g id="_x32_" class="st0">
		<polyline class="st1" points="313.6,354 318.6,354 318.6,419 		"/>
		<line class="st1" x1="401.2" y1="419" x2="391.2" y2="419"/>
		<polyline class="st2" points="393.4,354 388.3,354 358.5,382 318.6,419 313.6,419 		"/>
		<polyline class="st3" points="318.6,400.5 368.4,354 315.3,354 		"/>
		<polyline class="st2" points="315.2,354 368.4,354 318.7,400.5 318.6,419 		"/>
		<line class="st1" x1="358.3" y1="382" x2="397.9" y2="419"/>
	</g>
	<g id="_x31_" class="st0">
		<polyline class="st4" points="315.2,354 345.9,354 318.7,419 315.2,419 		"/>
		<polyline class="st4" points="366.8,354 361.8,354 334.6,419 313.6,419 		"/>
		<polyline class="st4" points="366.8,354 361.8,354 350.1,382 334.7,419 313.6,419 		"/>
		<line class="st4" x1="350.1" y1="382" x2="365.6" y2="419"/>
		<polyline class="st4" points="313.6,354 318.6,354 318.6,419 		"/>
		<line class="st4" x1="369.8" y1="419" x2="359.8" y2="419"/>
	</g>
	<g id="_x30_" class="st0">
		<polyline class="st4" points="315.2,354 332.6,354 332.6,419 315.2,419 		"/>
		<line class="st2" x1="350.1" y1="382" x2="365.6" y2="419"/>
		<polyline class="st2" points="313.6,354 318.6,354 318.6,419 		"/>
		<line class="st2" x1="369.8" y1="419" x2="359.8" y2="419"/>
		<polyline class="st4" points="366.8,354 361.8,354 350.1,382 350.1,419 313.6,419 		"/>
	</g>
</g>
<g id="Layer_2">
	<polyline class="st5" points="313.2,353.9 318.2,353.9 318.2,418.9 	"/>
	<line class="st5" x1="382.5" y1="418.9" x2="372.5" y2="418.9"/>
	<polyline class="st5" points="318.2,397.4 353.6,353.9 314.9,353.9 	"/>
	<polyline class="st2" points="315.2,354 353.6,354 332.6,379.2 318.2,397.4 	"/>
	<polyline class="st5" points="376.1,354 371,354 348.3,382 318,419 313.6,419 	"/>
	<line class="st5" x1="348.4" y1="381.9" x2="378.5" y2="418.9"/>
</g>
</svg>
