<?xml version="1.0" encoding="utf-8"?>
<!-- Generator: Adobe Illustrator 23.0.0, SVG Export Plug-In . SVG Version: 6.00 Build 0)  -->
<svg version="1.1" xmlns="http://www.w3.org/2000/svg" xmlns:xlink="http://www.w3.org/1999/xlink" x="0px" y="0px"
	 viewBox="0 0 401.2 421.2" style="enable-background:new 0 0 401.2 421.2;" xml:space="preserve">
<style type="text/css">
	.st0{fill:none;stroke:#EE255C;stroke-width:4;stroke-linejoin:bevel;stroke-miterlimit:10;}
	.st1{fill:none;stroke:#EE255C;stroke-width:4;stroke-linejoin:bevel;}
</style>
<g id="Layer_4">
	<path class="st0" d="M251.3,28.4l-2.6,0L213.8,61l0,0c11.2,11.4,35.2,6,37.6-13.6"/>
	<polyline class="st0" points="251.3,26.4 251.4,40.8 251.4,47.7 	"/>
	<path class="st0" d="M206.8,44.7c0.1,1.3,0.1,2.6,0.3,3.9c2-1.8,3.9-3.7,5.9-5.5c4.5-4.2,9-8.3,13.4-12.5
		c4.9-4.5,9.7-9.1,14.6-13.6c3.1-2.9,6.3-5.8,9.4-8.8c0.2-0.2,0.6-0.5,0.8-0.7c0.2-0.4,0.1-1.1,0.1-1.5c0-0.8,0-1.7,0-2.5
		c0-0.2-0.2-1.3,0-1.4c0.1-0.1,1,0,1.2,0c0.8,0,1.6,0,2.5,0c0.5,0,0.9,0,1.4,0"/>
	<path class="st1" d="M206.8,44.7c0-5.8,0-11.5,0-17.3c0-7.8,0-15.7,0-23.5c0-0.3,0.2-1.7,0-1.9c-0.2-0.2-2,0-2.3,0
		c-0.9,0-1.8,0-2.7,0"/>
</g>
<g id="_x31_">
	<polyline class="st0" points="249.4,2 244.4,2 244.4,44.7 	"/>
	<path class="st0" d="M249.3,2h-5l-26.9,64.5l0,0c10.1,2.2,25.7-3.6,26.9-21.8"/>
	<path class="st0" d="M199.7,44.7c0.1,7.1,2.5,10.5,4.9,13.9l21.7-52.1l2-4.5h-5"/>
	<polyline class="st0" points="199.8,44.7 199.8,2 194.8,2 	"/>
</g>
<g id="_x30_">
	<polyline class="st0" points="249.3,2 244.3,2 244.3,44.7 	"/>
	<path class="st0" d="M249.3,2H230v63.5l0,0c8.4-3.2,14.3-11.3,14.3-20.8"/>
	<path class="st0" d="M199.7,44.7c0,9.5,6,16.7,14.4,19.9L214,6.5V2h5"/>
	<polyline class="st0" points="199.7,44.7 199.7,2 194.7,2 	"/>
</g>
</svg>
