<svg xmlns="http://www.w3.org/2000/svg" viewBox="0 0 401.18 421.24"><defs><style>.cls-1{fill:none;}.cls-1,.cls-2{stroke:#ee255c;stroke-linejoin:bevel;stroke-width:4px;}.cls-2{fill:#fff;}</style></defs><title>MASTER_SVG</title><g id="Layer_2" data-name="Layer 2"><g id="Layer_1-2" data-name="Layer 1"><polyline class="cls-1" points="64.64 22.43 64.64 2 99.6 2 99.6 7"/><line class="cls-1" x1="64.64" y1="51.41" x2="64.64" y2="67"/><polyline class="cls-1" points="46.05 2 51.05 2 51.05 22.43 81.64 22.43 81.64 51.41 51.05 51.41 51.05 67"/><polyline class="cls-1" points="46.05 67.04 99.6 67.04 99.6 62.04"/><line class="cls-1" x1="169.29" y1="36.06" x2="159.29" y2="36.06"/><polyline class="cls-1" points="163.9 35.97 197.22 67.04 177.3 67.04 118.33 12.06"/><path class="cls-1" d="M172.83,44.29a32.51,32.51,0,0,0-54.5-32.23l47.54,44.33"/><path class="cls-1" d="M109.3,34.53a32.53,32.53,0,0,0,45.27,29.91L111.09,23.89A32.54,32.54,0,0,0,109.3,34.53Z"/><polyline class="cls-1" points="206.79 44.73 206.79 2.02 201.79 2.02"/><path class="cls-1" d="M251.37,44.73A22.29,22.29,0,0,1,213.83,61l37.5-35,0,0V44.73"/><path class="cls-1" d="M206.79,44.73a23.28,23.28,0,0,0,.34,3.94L251.37,7.42V2h5"/><polyline class="cls-1" points="287.43 51.41 280.9 67.02 264.94 67.02 271.47 51.41 318.77 51.41 325.3 67.02"/><line class="cls-1" x1="319.65" y1="67.02" x2="329.65" y2="67.02"/><polyline class="cls-1" points="299.56 22.43 303.1 13.95 306.65 22.43 283.59 22.43 292.13 2.02"/><line class="cls-1" x1="280.9" y1="67.02" x2="285.9" y2="67.02"/><line class="cls-1" x1="259.94" y1="67.02" x2="264.94" y2="67.02"/><line class="cls-1" x1="287.13" y1="2.02" x2="303.11" y2="2.02"/><polyline class="cls-1" points="209.81 139.41 203.28 155.02 187.31 155.02 193.84 139.41 241.15 139.41 247.68 155.02"/><line class="cls-1" x1="242.03" y1="155.02" x2="252.03" y2="155.02"/><polyline class="cls-1" points="221.93 110.43 225.48 101.95 229.02 110.43 205.97 110.43 214.5 90.02"/><line class="cls-1" x1="203.28" y1="155.02" x2="208.28" y2="155.02"/><line class="cls-1" x1="182.31" y1="155.02" x2="187.31" y2="155.02"/><line class="cls-1" x1="209.5" y1="90.02" x2="225.49" y2="90.02"/><path class="cls-1" d="M172.19,90a14,14,0,0,1,14,14h0a14,14,0,0,1-2.39,7.83h0L160.36,90"/><line class="cls-1" x1="172.19" y1="90.02" x2="135.45" y2="90.02"/><line class="cls-1" x1="140.45" y1="155.02" x2="140.45" y2="90.02"/><polyline class="cls-1" points="140.45 155.02 170.47 118.02 140.45 90.02"/><line class="cls-1" x1="145.45" y1="155.02" x2="135.45" y2="155.02"/><path class="cls-1" d="M302.61,178a14,14,0,0,1,14,14h0a14,14,0,0,1-2.4,7.83h0L290.78,178"/><line class="cls-1" x1="302.61" y1="178.02" x2="265.87" y2="178.02"/><line class="cls-1" x1="270.87" y1="243.02" x2="270.87" y2="178.02"/><line class="cls-1" x1="275.87" y1="243.02" x2="265.87" y2="243.02"/><polyline class="cls-1" points="122.52 243.02 127.52 243.02 127.52 227.41 158.1 227.41 158.1 198.43 127.52 198.43 127.52 178.02 122.52 178.02 176.07 178.02"/><polyline class="cls-1" points="141.1 198.43 141.1 178.02 176.07 178.02 176.07 182.9"/><polyline class="cls-1" points="146.09 243.02 141.1 243.02 141.1 227.41"/><path class="cls-1" d="M187.79,199.91a32.52,32.52,0,0,0,44.1,40.26Z"/><path class="cls-1" d="M242.57,232.41A32.51,32.51,0,0,0,195,188.07Z"/><line class="cls-1" x1="195.02" y1="188.07" x2="191.49" y2="191.81"/><line class="cls-1" x1="242.56" y1="232.41" x2="239.03" y2="236.15"/><line class="cls-1" x1="343.83" y1="243.24" x2="333.83" y2="243.24"/><path class="cls-1" d="M166.86,375.91A32.51,32.51,0,0,0,211,416.17Z"/><path class="cls-1" d="M221.63,408.41a32.51,32.51,0,0,0-47.54-44.34Z"/><line class="cls-1" x1="174.09" y1="364.07" x2="170.55" y2="367.81"/><line class="cls-1" x1="221.62" y1="408.41" x2="218.09" y2="412.15"/><path class="cls-1" d="M279.67,354a14,14,0,0,1,14,14h0a14,14,0,0,1-2.39,7.83h0L267.85,354"/><line class="cls-1" x1="279.67" y1="354.02" x2="242.93" y2="354.02"/><line class="cls-1" x1="247.93" y1="419.02" x2="247.93" y2="354.02"/><line class="cls-1" x1="252.93" y1="419.02" x2="242.93" y2="419.02"/><polyline class="cls-1" points="294.83 419.24 280.08 384 247.93 354.02"/><line class="cls-1" x1="299.77" y1="419.24" x2="289.77" y2="419.24"/><polyline class="cls-1" points="313.62 354.02 318.62 354.02 318.62 419.02"/><line class="cls-1" x1="401.18" y1="419.02" x2="391.18" y2="419.02"/><polyline class="cls-1" points="393.37 354.02 388.34 354.02 318.62 419.02 313.62 419.02"/><polyline class="cls-1" points="318.62 400.46 368.42 354.02 315.26 354.02"/><line class="cls-2" x1="358.28" y1="382.05" x2="397.93" y2="419.02"/><polyline class="cls-1" points="340.32 67.06 393.82 67.06 393.82 62.06"/><polyline class="cls-1" points="374.33 67.02 374.33 2.02 380.04 2.02"/><polyline class="cls-1" points="340.36 2.02 345.36 2.02 345.36 33.55 359.36 67.02"/><polyline class="cls-1" points="64.64 286.42 64.64 266 99.6 266 99.6 271"/><line class="cls-1" x1="64.64" y1="315.41" x2="64.64" y2="331"/><polyline class="cls-1" points="46.05 266 51.05 266 51.05 286.42 81.64 286.42 81.64 315.41 51.05 315.41 51.05 331"/><polyline class="cls-1" points="46.05 331.04 99.6 331.04 99.6 326.04"/><line class="cls-1" x1="169.29" y1="300.05" x2="159.29" y2="300.05"/><polyline class="cls-1" points="163.9 299.96 197.22 331.04 177.3 331.04 118.33 276.06"/><path class="cls-1" d="M172.83,308.29a32.51,32.51,0,0,0-54.5-32.23l47.54,44.33"/><path class="cls-1" d="M109.3,298.53a32.51,32.51,0,0,0,45.27,29.9l-43.48-40.54A32.54,32.54,0,0,0,109.3,298.53Z"/><polyline class="cls-1" points="206.79 308.73 206.79 266.02 201.79 266.02"/><path class="cls-1" d="M251.37,308.73A22.29,22.29,0,0,1,213.83,325l37.5-35,0,0v18.66"/><path class="cls-1" d="M206.79,308.73a23.28,23.28,0,0,0,.34,3.94l44.24-41.25V266h5"/><polyline class="cls-1" points="287.43 315.41 280.9 331.02 264.94 331.02 271.47 315.41 318.77 315.41 325.3 331.02"/><line class="cls-1" x1="319.65" y1="331.02" x2="329.65" y2="331.02"/><polyline class="cls-1" points="299.56 286.42 303.1 277.95 306.65 286.42 283.59 286.42 292.13 266.02"/><line class="cls-1" x1="280.9" y1="331.02" x2="285.9" y2="331.02"/><line class="cls-1" x1="259.94" y1="331.02" x2="264.94" y2="331.02"/><line class="cls-1" x1="287.13" y1="266.02" x2="303.11" y2="266.02"/><polyline class="cls-1" points="340.32 331.06 393.82 331.06 393.82 326.06"/><polyline class="cls-1" points="374.33 331.02 374.33 266.02 380.04 266.02"/><polyline class="cls-1" points="340.36 266.02 345.36 266.02 345.36 297.55 359.36 331.02"/><line class="cls-2" x1="250.1" y1="90.06" x2="276.57" y2="90.06"/><line class="cls-1" x1="311.07" y1="90.02" x2="321.07" y2="90.02"/><line class="cls-1" x1="316.86" y1="90.06" x2="299.4" y2="131.88"/><polyline class="cls-1" points="304.56 155.02 299.55 155.02 299.55 131.88 282.08 90.06 282.06 90.06 255.84 90.02"/><polyline class="cls-1" points="265.37 155.02 270.41 155.02 270.41 131.88 261.17 109.75 269.39 90.06"/><line class="cls-2" x1="270.87" y1="178.02" x2="340.57" y2="243.02"/><polyline class="cls-1" points="84.64 409.67 94.64 418.99 164.29 354.05 169.29 354.02"/><polyline class="cls-1" points="0 354.05 5 354.05 74.64 418.99 144.29 354.05 25.66 354.05 55.6 381.97"/><line class="cls-1" x1="60.22" y1="381.94" x2="48.22" y2="381.94"/></g></g></svg>